<svg width="60" height="60" fill="none" xmlns="http://www.w3.org/2000/svg"><path d="M53.303 15h3.885c.517 0 .937-.42.937-.938v-7.5a.938.938 0 00-.938-.937h-5.624c-4.653 0-8.438 3.785-8.438 8.438v3.75a.938.938 0 00-.938.937v3.75c0 .518.42.938.938.938v3.52a1.17 1.17 0 01-1.168 1.167h-7.27c.518 0 .938-.42.938-.938v-3.75a.938.938 0 00-.938-.937v-2.974a2.817 2.817 0 001.876-2.651 2.816 2.816 0 00-2.813-2.813V11.25a.938.938 0 00-.938-.938v-1.66l3.664.407a3.459 3.459 0 002.686-.86 3.459 3.459 0 001.15-2.574c0-.981-.419-1.92-1.15-2.574a3.458 3.458 0 00-2.686-.86l-4.188.466A3.73 3.73 0 0030 1.875a3.73 3.73 0 00-2.288.782l-4.188-.466a3.46 3.46 0 00-2.686.86 3.459 3.459 0 00-1.15 2.574 3.459 3.459 0 003.455 3.455c.127 0 .254-.007.38-.021l3.665-.407v1.66a.938.938 0 00-.938.938v2.813a2.816 2.816 0 00-2.813 2.812c0 1.222.784 2.264 1.875 2.651V22.5a.938.938 0 00-.937.938v3.75c0 .517.42.937.938.937V37.5a.938.938 0 00-.938.938v3.75c0 .517.42.937.938.937v4.688h-.938a.938.938 0 00-.938-.938h-3.75a.938.938 0 00-.937.938h-.938v-6.057c3.8-1.197 6.563-4.754 6.563-8.944 0-5.169-4.206-9.374-9.375-9.374-5.17 0-9.375 4.205-9.375 9.375 0 4.19 2.763 7.745 6.563 8.943v6.056h-.938a.938.938 0 00-.938-.937h-3.75a.938.938 0 00-.937.938H2.812a.938.938 0 00-.937.937v7.5c0 .518.42.938.938.938h2.812c0 .517.42.937.938.937h3.75c.517 0 .937-.42.937-.938h7.5c0 .518.42.938.938.938h3.75c.517 0 .937-.42.937-.938h12.188c0 .518.42.938.937.938h3.75c.518 0 .938-.42.938-.938h6.562c0 .518.42.938.938.938h3.75c.517 0 .937-.42.937-.938h2.813c.517 0 .937-.42.937-.937v-7.5a.938.938 0 00-.938-.938h-2.812a.938.938 0 00-.938-.937h-3.75a.938.938 0 00-.937.938h-6.563a.938.938 0 00-.937-.938H37.5a.938.938 0 00-.938.938h-1.874v-4.688c.517 0 .937-.42.937-.938v-3.75a.938.938 0 00-.938-.937h9.376c4.652 0 8.437-3.785 8.437-8.438v-5.625c.518 0 .938-.42.938-.937v-3.75a.938.938 0 00-.938-.938v-2.01c0-.442.36-.802.803-.802zm-1.74 4.688v1.875h-7.5v-1.875h7.5zM26.25 41.25v-1.875h7.5v1.875h-7.5zm0-15v-1.875h7.5v1.875h-7.5zM36.683 4.055c.453-.05.889.09 1.228.393.34.304.526.722.526 1.177 0 .455-.186.873-.526 1.177a1.56 1.56 0 01-1.228.393l-3.138-.349a3.735 3.735 0 000-2.442l3.138-.35zm-4.808 1.57A1.877 1.877 0 0130 7.5a1.877 1.877 0 01-1.875-1.875c0-1.034.841-1.875 1.875-1.875s1.875.841 1.875 1.875zm-8.558 1.57c-.453.05-.889-.09-1.228-.393a1.56 1.56 0 01-.526-1.177c0-.455.186-.873.526-1.177a1.556 1.556 0 011.228-.393l3.138.349a3.735 3.735 0 000 2.442l-3.138.35zm5.745 2.061a3.743 3.743 0 001.875 0v1.056h-1.875V9.256zm-.937 2.931h3.75v1.876h-3.75v-1.876zm-1.875 3.75h7.5a.939.939 0 010 1.876h-7.5a.939.939 0 010-1.875zm.938 3.75h5.625V22.5h-5.626v-2.813zm0 8.438h5.625V37.5h-5.626v-9.375zM7.5 32.813c0-4.136 3.364-7.5 7.5-7.5s7.5 3.364 7.5 7.5c0 4.135-3.364 7.5-7.5 7.5s-7.5-3.365-7.5-7.5zm6.563 9.328a9.461 9.461 0 001.874 0v5.672h-1.874V42.14zM3.75 55.313v-5.626h1.875v5.626H3.75zm5.625.937H7.5v-7.5h1.875v7.5zm1.875-.938v-5.624h7.5v5.624h-7.5zm11.25.938h-1.875v-7.5H22.5v7.5zm33.75-6.563v5.626h-1.875v-5.626h1.875zm-5.625-.937H52.5v7.5h-1.875v-7.5zm-1.875.938v5.624h-6.563v-5.624h6.563zm-10.313-.938h1.876v7.5h-1.876v-7.5zm-1.874 6.563H24.374v-5.626h12.188v5.626zm-3.75-7.5h-5.626v-4.688h5.625v4.688zm17.812-18.75a6.57 6.57 0 01-6.563 6.562h-9.374V30h7.27A3.046 3.046 0 0045 26.957v-3.52h5.625v5.625zm0-13.26v2.01H45v-3.75A6.57 6.57 0 0151.563 7.5h4.687v5.625h-2.947a2.68 2.68 0 00-2.678 2.678z" fill="#EAA53C"/><path d="M15 29.063c.518 0 .938-.42.938-.938v-.938a.938.938 0 00-1.876 0v.938c0 .518.42.938.938.938zm-3.315-.891a.938.938 0 00-1.325 1.326l.663.663a.935.935 0 001.325 0 .937.937 0 000-1.326l-.663-.663zm-.435 4.641a.938.938 0 00-.938-.938h-.937a.938.938 0 000 1.875h.938c.517 0 .937-.42.937-.938zm-.227 2.651l-.663.663a.938.938 0 101.325 1.326l.663-.663a.937.937 0 10-1.325-1.326zm4.915 2.974V37.5a.938.938 0 00-1.876 0v.938a.938.938 0 001.876 0zm2.376-.985a.935.935 0 001.326 0 .937.937 0 000-1.326l-.663-.663a.938.938 0 00-1.325 1.326l.662.663zm.436-4.64c0 .517.42.937.938.937h.937a.938.938 0 000-1.875h-.938a.938.938 0 00-.937.938zm-.436-2.378c.24 0 .48-.091.663-.274l.663-.663a.937.937 0 10-1.326-1.326l-.662.663a.937.937 0 00.662 1.6zm-3.215.083l-.938 1.875a.937.937 0 001.678.839l.937-1.875a.937.937 0 10-1.677-.839z" fill="#EAA53C"/></svg>