<svg width="220" height="220" fill="none" xmlns="http://www.w3.org/2000/svg"><path fill="#B9AE9D" d="M0 0h220v220H0z"/><path d="M125.724 114.078l3.754-30.026a5.463 5.463 0 00-3.172-5.652 5.465 5.465 0 00-2.245-.483h-14.952a5.481 5.481 0 00-5.111 3.542l-6.957 18.552a6.355 6.355 0 01-5.926 4.106H84.25a3.28 3.28 0 00-3.275 3.275v6.55a1.09 1.09 0 001.091 1.092h3.095l-3.877 25.202a2.762 2.762 0 005.42 1.041l6.056-26.243h4.133l-3.877 25.202a2.762 2.762 0 005.42 1.041l6.056-26.243h4.274l6.056 26.243a2.764 2.764 0 003.212 2.091 2.758 2.758 0 002.209-3.132l-3.877-25.202h1.134l6.056 26.243a2.762 2.762 0 005.42-1.041l-3.891-25.297a1.084 1.084 0 00.64-.861zm-37.108-7.777h2.5a8.556 8.556 0 007.969-5.523l6.957-18.553a3.294 3.294 0 013.067-2.125h14.952a3.274 3.274 0 013.25 3.681l-1.849 14.793a6.339 6.339 0 01-4.76 5.357 8.488 8.488 0 002.56-5.086l1.371-10.968-2.167-.27-1.371 10.967a6.334 6.334 0 01-6.279 5.543 3.28 3.28 0 00-3.275 3.275v1.28a3.253 3.253 0 00-1.092-.188H88.616c-.372 0-.742.063-1.092.188v-1.28a1.09 1.09 0 011.092-1.091zm29.475 6.55v-5.459a1.092 1.092 0 011.092-1.091 8.496 8.496 0 005.574-2.087l-1.08 8.637h-5.586zm-1.996-6.55c-.124.35-.188.719-.187 1.091v5.459h-2.184v-5.459a1.097 1.097 0 011.092-1.091h1.279zm-4.554 6.55H87.524v-1.092a1.095 1.095 0 011.092-1.092h21.833a1.092 1.092 0 011.092 1.092v1.092zm-28.384-5.459a1.092 1.092 0 011.092-1.091h1.279c-.125.35-.188.719-.188 1.091v5.459h-2.183v-5.459zm1.419 33.394a.58.58 0 01-1.136-.218l3.929-25.534h3.15l-5.944 25.752zm11.732 0a.58.58 0 01-1.036.204.58.58 0 01-.1-.422l3.93-25.534h3.149l-5.943 25.752zm21.776-.218a.581.581 0 01-.463.656.576.576 0 01-.672-.438l-5.943-25.752h3.15l3.928 25.534zm8.601.465a.585.585 0 01-.577.185.584.584 0 01-.426-.432l-5.942-25.752h3.149l3.928 25.534a.557.557 0 01-.132.465z" fill="#0F0F0E"/></svg>