<svg width="90" height="90" fill="none" xmlns="http://www.w3.org/2000/svg"><g clip-path="url(#clip0_24_173)" fill="#EAA53C"><path d="M89.188 63.245l-8.305-3.457v-2.226a5.972 5.972 0 005.273-5.923v-6.857h.466a2.328 2.328 0 002.326-2.325v-2.722a2.328 2.328 0 00-1.884-2.282 9.06 9.06 0 00-7.642-7.672c.063-1.062-.892-2.297-2.199-2.305h-2.686c-1.073-.015-2.255 1.016-2.198 2.305a9.06 9.06 0 00-7.642 7.672 2.328 2.328 0 00-1.885 2.282v2.722a2.328 2.328 0 002.326 2.325h.466v6.857a5.972 5.972 0 005.273 5.923v2.226l-4.914 2.046-.73-2.917c-.57-2.421-2.5-4.756-4.97-5.772l-.983-.41a1.318 1.318 0 10-1.013 2.435l.982.409a5.855 5.855 0 011.482.895 13.791 13.791 0 00-2.627 8.097v2.107H46.318v-7.962l4.39-6.694 2.304.96a1.319 1.319 0 001.014-2.434l-2.504-1.043v-4.003c4.145-.225 7.447-3.667 7.447-7.867v-1.39c3.09-.614 5.428-3.346 5.428-6.615a6.73 6.73 0 00-2.215-4.993 2.73 2.73 0 00.73-1.856v-2.939a2.742 2.742 0 00-2.603-2.733c-.581-5.558-5.104-10.242-10.851-10.845v-.63a2.564 2.564 0 00-2.561-2.561h-3.794a2.564 2.564 0 00-2.561 2.561v.63c-5.585.593-10.238 5.096-10.85 10.845a2.742 2.742 0 00-2.604 2.733v2.939c0 .716.279 1.367.73 1.856a6.73 6.73 0 00-2.215 4.993c0 3.269 2.337 6 5.427 6.616v1.39c0 4.199 3.303 7.64 7.447 7.866v4.003l-8.74 3.64c-2.338.943-4.31 3.156-4.97 5.77l-.73 2.919-4.914-2.046v-2.226a5.972 5.972 0 005.273-5.923v-6.857c1.302.19 2.784-.829 2.792-2.325v-2.722a2.328 2.328 0 00-1.885-2.282 9.062 9.062 0 00-7.642-7.67v-.109a2.2 2.2 0 00-2.198-2.198h-2.686a2.2 2.2 0 00-2.198 2.198v.11a9.028 9.028 0 00-3.089 1.04 1.318 1.318 0 101.284 2.304 6.373 6.373 0 011.805-.669v4.95H5.617a5.6 5.6 0 01.081-.34 1.319 1.319 0 00-2.547-.681c-.094.35-.163.705-.214 1.064a2.328 2.328 0 00-1.885 2.283v2.722c-.015 1.359 1.328 2.506 2.792 2.325v6.857a5.972 5.972 0 005.273 5.923v2.226L.812 63.245A1.318 1.318 0 000 64.462v21.146a1.318 1.318 0 102.637 0v-5.313h10.165v5.313a1.318 1.318 0 102.636 0v-5.313h3.973l-1.25 4.993a1.319 1.319 0 002.557.64l6.608-26.373a5.77 5.77 0 01.277-.828 11.152 11.152 0 011.656 5.844v21.037a1.318 1.318 0 102.637 0v-8.047h11.786v8.047a1.318 1.318 0 102.636 0v-8.047h11.786v8.047a1.318 1.318 0 102.637 0V64.571c0-2.076.58-4.096 1.656-5.844.112.27.207.546.277.83l6.608 26.372a1.32 1.32 0 002.558-.641l-1.251-4.993h3.973v5.313a1.318 1.318 0 102.636 0v-5.313h10.165v5.313a1.318 1.318 0 102.637 0V64.462c0-.532-.32-1.013-.812-1.217zM21.535 71.82h-6.097v-3.51l2.993-5.954 4.958 2.064-1.854 7.4zm-5.049-12.472h-4.733v-1.745h4.733v1.745zm-.82 2.638l-1.546 3.076-1.546-3.076h3.092zm6.956-24.577h-4.96v-4.951a6.424 6.424 0 014.96 4.951zm-9.407-7.297h1.81v7.297h-1.81v-7.297zM3.69 40.046h20.86v2.1H3.69v-2.1zm2.79 11.593v-6.857h6.322v1.805a1.318 1.318 0 102.636 0v-1.805h6.322v6.857a3.331 3.331 0 01-3.328 3.328H9.808a3.332 3.332 0 01-3.328-3.328zm3.33 10.717l2.993 5.953v3.51H2.637v-6.478l7.172-2.985zM2.637 77.658v-3.202h10.165v3.202H2.637zm12.801 0v-3.202h5.436l-.802 3.202h-4.634zM45 55.918l-2.763-4.215h5.526L45 55.918zm3.886-6.852h-7.772v-3.551h7.772v3.55zm10.083-15.544v-7.784a4.116 4.116 0 012.791 3.892 4.116 4.116 0 01-2.79 3.892zm-5.01-22.727l-1.28.862a1.318 1.318 0 101.474 2.187l1.694-1.14a9.54 9.54 0 011.806 4.398h-8.195V8.92a9.54 9.54 0 014.502 1.875zM43.18 5.71h3.642v11.392H43.18V5.71zm-9.025 6.994l1.693 1.14a1.317 1.317 0 101.473-2.187l-1.278-.86a9.558 9.558 0 014.5-1.876v8.181h-8.195a9.531 9.531 0 011.807-4.398zm-4.325 10.18a.104.104 0 01-.104-.103v-2.939c0-.057.046-.103.104-.103h30.34c.057 0 .104.046.104.103v2.939a.104.104 0 01-.104.104H29.83zm-1.59 6.746a4.116 4.116 0 012.79-3.892v7.784a4.116 4.116 0 01-2.79-3.892zm5.427 8.005V25.52h22.666v12.114a5.249 5.249 0 01-5.243 5.243H38.91a5.249 5.249 0 01-5.243-5.243zM29.27 56.474a5.848 5.848 0 011.482-.895l8.542-3.557 4.389 6.694v7.962H31.896v-2.107c0-2.92-.925-5.751-2.627-8.097zm2.627 18.45v-5.61h11.786v5.61H31.896zm26.208 0H46.318v-5.61h11.786v5.61zm17.776-9.862l-1.546-3.076h3.092l-1.546 3.076zm2.367-5.714h-4.734v-1.745h4.734v1.745zm6.135-21.939h-4.96v-4.951a6.424 6.424 0 014.96 4.951zm-9.407-7.297h1.81v7.297h-1.81v-7.297zm-2.637 2.347v4.95h-4.96a6.425 6.425 0 014.96-4.95zm-6.89 7.587h20.863v2.1H65.45v-2.1zm2.792 11.593v-6.857h6.322v1.805a1.318 1.318 0 102.636 0v-1.805h6.322v6.857a3.331 3.331 0 01-3.328 3.328h-8.624a3.332 3.332 0 01-3.328-3.328zm3.329 10.717l2.993 5.953v3.51h-6.097l-1.854-7.4 4.958-2.063zm-1.64 15.302l-.803-3.202h5.436v3.202h-4.634zm7.27 0v-3.202h2.049a1.318 1.318 0 100-2.636h-2.05v-3.51l2.993-5.954 7.172 2.985v6.479h-1.97a1.318 1.318 0 100 2.636h1.97v3.202H77.198z"/><path d="M75.88 53.067c1.4 0 2.688-.82 3.28-2.089a1.318 1.318 0 00-2.389-1.115.987.987 0 01-.891.567.987.987 0 01-.891-.567 1.319 1.319 0 00-2.39 1.115 3.634 3.634 0 003.281 2.089zM45 33.87c.728 0 1.318-.59 1.318-1.318V28.31a1.318 1.318 0 10-2.636 0v4.242c0 .728.59 1.318 1.318 1.318zm0 5.982a4.586 4.586 0 004.14-2.636 1.319 1.319 0 00-2.389-1.115A1.94 1.94 0 0145 37.216a1.94 1.94 0 01-1.751-1.115 1.319 1.319 0 00-2.39 1.115A4.587 4.587 0 0045 39.852zM14.12 53.067c1.4 0 2.688-.82 3.28-2.089a1.319 1.319 0 00-2.389-1.115.987.987 0 01-.891.567.987.987 0 01-.891-.567 1.319 1.319 0 00-2.39 1.115 3.634 3.634 0 003.281 2.089z"/></g><defs><clipPath id="clip0_24_173"><path fill="#fff" d="M0 0h90v90H0z"/></clipPath></defs></svg>