<svg width="32" height="32" fill="none" xmlns="http://www.w3.org/2000/svg"><path d="M28 21.969v3.613c.005 1.381-1.237 2.534-2.631 2.409C13.334 28 4 18.58 4.009 6.626 3.885 5.239 5.033 4 6.412 4h3.62a2.416 2.416 0 011.598.582c1.262 1.084 2.074 4.762 1.761 6.224-.243 1.141-1.394 1.94-2.176 2.72a19.289 19.289 0 007.24 7.227c.782-.781 1.582-1.93 2.726-2.173 1.467-.312 5.169.5 6.248 1.772A2.4 2.4 0 0128 21.969z" stroke="#212121" stroke-width="1.5" stroke-linecap="round" stroke-linejoin="round"/></svg>