<svg width="90" height="90" fill="none" xmlns="http://www.w3.org/2000/svg"><path d="M43.594 78.75h2.812v2.813h-2.812V78.75zm24.263-8.89l1.989-1.99 1.988 1.99-1.989 1.988-1.988-1.988zM78.75 43.594h2.813v2.812H78.75v-2.812z" fill="#EAA53C"/><path d="M85.781 35.156h-9.97a31.707 31.707 0 00-2.06-4.98l7.046-7.049a1.406 1.406 0 000-1.988l-5.966-5.965A42.188 42.188 0 1015.169 74.83l5.965 5.966a1.406 1.406 0 001.989 0l7.048-7.046c1.6.826 3.268 1.515 4.985 2.059v9.971a1.406 1.406 0 001.407 1.406h16.874a1.406 1.406 0 001.407-1.406v-9.97a31.732 31.732 0 004.98-2.059l7.049 7.047a1.406 1.406 0 001.988 0l11.932-11.932a1.406 1.406 0 000-1.989l-7.046-7.048a31.719 31.719 0 002.063-4.986h9.971a1.406 1.406 0 001.406-1.407V36.564a1.406 1.406 0 00-1.406-1.407zm-68.625-18a39.36 39.36 0 0154.667-.97l-1.986 1.986a36.562 36.562 0 00-51.665 51.665l-1.986 1.986a39.36 39.36 0 01.97-54.667zm39.776 15.912a16.875 16.875 0 01-23.864 23.864 1.406 1.406 0 00-1.988 0L20.16 67.85a33.75 33.75 0 0147.69-47.689L56.931 31.078a1.408 1.408 0 000 1.99zm27.443 18.963h-9.613a1.407 1.407 0 00-1.356 1.03 28.816 28.816 0 01-2.617 6.328 1.407 1.407 0 00.234 1.687l6.79 6.792-9.942 9.943-6.792-6.791a1.407 1.407 0 00-1.687-.234 28.778 28.778 0 01-6.329 2.617 1.406 1.406 0 00-1.029 1.356v9.616H37.97v-9.613a1.407 1.407 0 00-1.03-1.356 28.813 28.813 0 01-6.328-2.617 1.407 1.407 0 00-1.687.234l-6.792 6.79-3.977-3.976L32.112 59.88A19.687 19.687 0 0059.88 32.109l13.956-13.957 3.977 3.977-6.791 6.792a1.406 1.406 0 00-.234 1.688 28.79 28.79 0 012.617 6.328 1.406 1.406 0 001.356 1.029h9.613v14.065z" fill="#EAA53C"/><path d="M46.406 39.575V23.906a1.406 1.406 0 10-2.812 0v15.669a5.626 5.626 0 00-4.02 4.019H29.532a1.406 1.406 0 100 2.812h10.044a5.613 5.613 0 106.831-6.831zM45 47.812a2.812 2.812 0 110-5.623 2.812 2.812 0 010 5.623zm0-29.531a1.406 1.406 0 01-1.406-1.406v-2.813a1.406 1.406 0 112.812 0v2.813A1.406 1.406 0 0145 18.281zm14.063 3.769a1.406 1.406 0 01-1.217-2.11l1.406-2.436a1.407 1.407 0 012.436 1.406l-1.406 2.437a1.406 1.406 0 01-1.22.703zm-28.125 0a1.406 1.406 0 01-1.22-.703l-1.406-2.437a1.406 1.406 0 012.436-1.406l1.406 2.437a1.406 1.406 0 01-1.217 2.109zM20.642 32.344c-.247 0-.49-.065-.703-.189l-2.437-1.406a1.406 1.406 0 011.406-2.436l2.438 1.407a1.407 1.407 0 01-.704 2.624zm-3.767 14.062h-2.813a1.406 1.406 0 110-2.812h2.813a1.406 1.406 0 110 2.812zm1.333 15.469a1.406 1.406 0 01-.703-2.624l2.437-1.406a1.406 1.406 0 111.406 2.435l-2.437 1.407a1.396 1.396 0 01-.703.188z" fill="#EAA53C"/><path d="M45 59.063a13.94 13.94 0 01-9.94-4.126 1.406 1.406 0 111.992-1.986 11.243 11.243 0 1015.899-15.9 1.407 1.407 0 111.986-1.99A14.063 14.063 0 0145 59.063z" fill="#EAA53C"/></svg>