<svg width="80" height="80" fill="none" xmlns="http://www.w3.org/2000/svg"><circle opacity=".3" cx="40" cy="40" r="40" fill="#FFBE5B"/><path d="M52.883 41.636a.653.653 0 00-.265-.28.798.798 0 00-.4-.106h-1.317c.234-1.914-.374-3.834-1.701-5.375a.704.704 0 00-.254-.184.808.808 0 00-.642 0 .704.704 0 00-.254.184c-1.327 1.54-1.935 3.46-1.701 5.375H45.03a.798.798 0 00-.399.105.653.653 0 00-.265.28.55.55 0 00-.04.362.604.604 0 00.196.32l2.875 2.5a.777.777 0 00.508.183v5a.587.587 0 01-.21.442.776.776 0 01-.508.183.776.776 0 01-.509-.183.587.587 0 01-.21-.442v-3.75c0-.497-.227-.974-.632-1.326a2.33 2.33 0 00-1.525-.549 2.33 2.33 0 00-1.524.55c-.405.35-.632.828-.632 1.325v1.875H40.72v-11.25h1.437a.8.8 0 00.378-.093.668.668 0 00.265-.252l1.438-2.5a.557.557 0 00-.032-.609.686.686 0 00-.261-.217.804.804 0 00-.35-.079V32.5c0-.828.38-1.623 1.053-2.209.674-.585 1.588-.915 2.54-.916.572 0 1.12.198 1.525.55.405.35.632.828.632 1.325s-.227.974-.632 1.326a2.33 2.33 0 01-1.525.549.776.776 0 01-.508-.183.587.587 0 01-.21-.442c0-.166.075-.325.21-.442a.776.776 0 01.508-.183v-1.25a2.33 2.33 0 00-1.524.55c-.405.35-.632.828-.632 1.325s.227.974.632 1.326c.404.352.953.549 1.525.549.953 0 1.867-.33 2.54-.915.675-.586 1.053-1.381 1.053-2.21s-.378-1.624-1.052-2.21c-.674-.586-1.588-.915-2.541-.915-1.334.001-2.613.463-3.556 1.283-.944.82-1.474 1.932-1.476 3.092v.625H40.72v-3.233c.42-.129.784-.368 1.042-.685.257-.316.395-.694.395-1.082 0-.388-.138-.766-.395-1.082a2.152 2.152 0 00-1.042-.685V25c.953 0 1.866-.33 2.54-.916.673-.586 1.052-1.38 1.053-2.209a.587.587 0 00-.21-.442.777.777 0 00-.508-.183h-7.188a.777.777 0 00-.508.183.587.587 0 00-.21.442c0 .828.38 1.623 1.053 2.209.674.585 1.587.915 2.54.916v1.358c-.42.129-.784.368-1.042.685a1.713 1.713 0 00-.395 1.082c0 .388.138.766.395 1.082.258.317.622.556 1.042.685v3.233h-1.437V32.5c-.002-1.16-.532-2.272-1.476-3.092-.943-.82-2.222-1.282-3.556-1.283-.953 0-1.867.33-2.54.915-.675.586-1.053 1.381-1.053 2.21s.378 1.624 1.052 2.21c.674.586 1.588.915 2.541.915a2.33 2.33 0 001.525-.55c.405-.35.632-.828.632-1.325s-.227-.974-.632-1.326a2.33 2.33 0 00-1.525-.549v1.25a.78.78 0 01.509.183c.135.117.21.276.21.442a.587.587 0 01-.21.442.776.776 0 01-.508.183 2.33 2.33 0 01-1.525-.55c-.405-.35-.632-.828-.632-1.325s.227-.974.632-1.326a2.33 2.33 0 011.524-.549c.953 0 1.867.33 2.54.916.674.586 1.053 1.38 1.054 2.209v.625a.804.804 0 00-.35.08.686.686 0 00-.261.216.557.557 0 00-.031.608l1.437 2.5c.06.104.151.192.265.253a.8.8 0 00.378.093h1.437v11.25h-1.437V46.25c0-.497-.227-.974-.632-1.326a2.33 2.33 0 00-1.525-.549 2.33 2.33 0 00-1.524.55c-.405.35-.632.828-.632 1.325V50a.587.587 0 01-.21.442.776.776 0 01-.508.183.776.776 0 01-.509-.183.587.587 0 01-.21-.442v-5c.19 0 .373-.066.508-.183l2.875-2.5a.604.604 0 00.197-.32.55.55 0 00-.041-.361.653.653 0 00-.265-.28.798.798 0 00-.4-.106h-1.317c.234-1.914-.374-3.834-1.701-5.375a.704.704 0 00-.253-.184.808.808 0 00-.643 0 .704.704 0 00-.254.184c-1.327 1.54-1.935 3.46-1.701 5.375h-1.32a.798.798 0 00-.399.105.653.653 0 00-.265.28.55.55 0 00-.04.362.605.605 0 00.196.32l2.875 2.5a.777.777 0 00.508.183v5c0 .497.227.974.632 1.326.404.352.953.549 1.524.549a2.33 2.33 0 001.525-.55c.405-.35.632-.828.632-1.325v-3.75c0-.166.075-.325.21-.442a.776.776 0 01.508-.183.78.78 0 01.509.183c.135.117.21.276.21.442v3.048c0 .79.273 1.563.786 2.216.513.653 1.242 1.155 2.09 1.442v1.226c-.516.666-1.438 1.96-1.438 2.693 0 .497.227.974.631 1.326a2.33 2.33 0 001.525.549 2.33 2.33 0 001.525-.55c.404-.35.631-.828.631-1.325 0-.734-.922-2.027-1.437-2.693v-1.226c.847-.287 1.576-.79 2.089-1.442a3.572 3.572 0 00.786-2.216V46.25c0-.166.075-.325.21-.442a.776.776 0 01.508-.183.78.78 0 01.509.183c.135.117.21.276.21.442V50c0 .497.227.974.632 1.326.404.352.953.549 1.525.549a2.33 2.33 0 001.524-.55c.405-.35.632-.828.632-1.325v-5c.19 0 .373-.066.508-.183l2.875-2.5a.605.605 0 00.197-.32.55.55 0 00-.041-.361zM37.248 22.5h5.504c-.15.365-.425.682-.789.905a2.39 2.39 0 01-1.244.345H39.28c-.445 0-.88-.12-1.244-.345a1.932 1.932 0 01-.789-.905zm2.752 5a.81.81 0 01.4.105c.117.069.21.167.264.28a.55.55 0 01.04.362.604.604 0 01-.196.32.757.757 0 01-.368.171.82.82 0 01-.415-.036.706.706 0 01-.323-.23.568.568 0 01-.12-.347c0-.166.075-.325.21-.442A.778.778 0 0140 27.5zm-2.43 6.875h4.86l-.718 1.25h-3.424l-.719-1.25zm-6.195 3.03c.733 1.174 1.023 2.52.83 3.845h-1.66c-.194-1.326.097-2.671.83-3.846zM29.517 42.5h3.717l-1.438 1.25h-.842l-1.438-1.25zM40 57.5a.777.777 0 01-.508-.183.587.587 0 01-.21-.441c.005-.191.304-.736.718-1.342.414.606.713 1.15.719 1.342a.588.588 0 01-.211.44.777.777 0 01-.508.184zm0-5.649a3.105 3.105 0 01-1.534-.938 2.461 2.461 0 01-.621-1.538h4.31a2.461 2.461 0 01-.621 1.538 3.105 3.105 0 01-1.534.938zm8.625-14.447c.733 1.175 1.023 2.52.83 3.846h-1.66c-.194-1.326.097-2.671.83-3.846zm.421 6.346h-.842l-1.438-1.25h3.718l-1.438 1.25zm-21.265 6.876v.624c0 .497-.227.974-.631 1.326a2.33 2.33 0 01-1.525.549 2.33 2.33 0 01-1.525-.55c-.404-.35-.631-.828-.631-1.325V47.5c.19 0 .373-.066.508-.183l2.875-2.5a.604.604 0 00.197-.32.55.55 0 00-.041-.361.653.653 0 00-.265-.28.798.798 0 00-.4-.106h-1.317c.234-1.914-.374-3.834-1.701-5.375a.704.704 0 00-.253-.184.808.808 0 00-.643 0 .704.704 0 00-.254.184c-1.327 1.54-1.935 3.46-1.701 5.375h-1.318a.798.798 0 00-.399.105.653.653 0 00-.265.28.55.55 0 00-.04.362.605.605 0 00.196.32l2.875 2.5a.777.777 0 00.508.183v3.75c0 .829.379 1.624 1.053 2.21.674.586 1.588.915 2.541.915.953 0 1.867-.33 2.541-.915.674-.586 1.053-1.381 1.053-2.21v-.624a2.828 2.828 0 01.598-1.728l-1.197-.692a3.963 3.963 0 00-.839 2.42zM22.75 39.904c.733 1.175 1.023 2.52.83 3.846h-1.66c-.194-1.326.097-2.671.83-3.846zM20.892 45h3.717l-1.438 1.25h-.842L20.891 45zm40.616-.864a.653.653 0 00-.265-.28.798.798 0 00-.4-.106h-1.317c.234-1.914-.374-3.834-1.7-5.375a.706.706 0 00-.255-.184.808.808 0 00-.642 0 .706.706 0 00-.254.184c-1.327 1.54-1.935 3.46-1.701 5.375h-1.318a.798.798 0 00-.399.105.653.653 0 00-.265.28.55.55 0 00-.04.362.604.604 0 00.196.32l2.875 2.5a.777.777 0 00.508.183v3.75c0 .497-.227.974-.631 1.326a2.33 2.33 0 01-1.525.549 2.33 2.33 0 01-1.525-.55c-.404-.35-.631-.828-.631-1.325v-.624a3.963 3.963 0 00-.84-2.42l-1.196.692c.391.512.6 1.113.598 1.728v.624c0 .829.379 1.624 1.053 2.21.674.586 1.588.915 2.541.915.953 0 1.867-.33 2.541-.915.674-.586 1.053-1.381 1.053-2.21V47.5c.19 0 .373-.066.508-.183l2.875-2.5a.605.605 0 00.197-.32.55.55 0 00-.041-.361zm-4.258-4.232c.733 1.175 1.024 2.52.83 3.846h-1.66c-.194-1.326.097-2.671.83-3.846zm.421 6.346h-.842L55.391 45h3.718l-1.438 1.25z" fill="#000"/></svg>