<svg width="60" height="60" fill="none" xmlns="http://www.w3.org/2000/svg"><g clip-path="url(#clip0_171_1123)" fill="#EAA53C"><path d="M2 60h34a2 2 0 002-2v-2a2 2 0 00-2-2V39a2 2 0 002-2V26a1 1 0 00-1-1h-1v-.726a1 1 0 01.577-.906l12.692-5.923A3.012 3.012 0 0051 14.726V12a3 3 0 00-3-3h-1V7a2 2 0 00-2-2h-9V2a2 2 0 00-2-2H2a2 2 0 00-2 2v56a2 2 0 002 2zm34-2H2v-2h34v2zm-2-21V27h2v10h-2zm14-26a1 1 0 011 1v2.726a1 1 0 01-.577.906L36 21.43V15h9a2 2 0 002-2v-2h1zm-3-1v3H23V7h22v3zM34 5H23a2 2 0 00-2 2v2a1 1 0 100 2v2a2 2 0 002 2h11v10h-1a1 1 0 00-1 1v-5a4 4 0 00-8 0v5a2 2 0 11-4 0V16a4 4 0 00-8 0v2a2 2 0 11-4 0V2h26v3zM2 2h4v16a4 4 0 008 0v-2a2 2 0 114 0v10a4 4 0 008 0v-5a2 2 0 114 0v5a3 3 0 002 2.816V37a2 2 0 002 2v15H2V2z"/><path d="M43 60h14a2 2 0 002-2V44a1 1 0 100-2h-1v-1a8 8 0 10-16 0v1h-1a1 1 0 100 2v14a2 2 0 002 2zm1-19a6 6 0 0112 0v1H44v-1zm1 3v7a1 1 0 102 0v-7h2v4a1 1 0 102 0v-4h6v14H43V44h2z"/></g><defs><clipPath id="clip0_171_1123"><path fill="#fff" d="M0 0h60v60H0z"/></clipPath></defs></svg>