<svg width="220" height="220" fill="none" xmlns="http://www.w3.org/2000/svg"><path fill="#B9AE9D" d="M0 0h220v220H0z"/><path d="M161.234 94.618a3.722 3.722 0 003.254-1.876 3.72 3.72 0 00.006-3.756l-8.054-14.02a1.61 1.61 0 00-1.397-.81h-7.338v-12.17c0-.89-.722-1.611-1.612-1.611h-10.771c-.89 0-1.612.72-1.612 1.61v12.173h-19.091a1.61 1.61 0 100 3.222h39.492l7.589 13.212a.52.52 0 01-.001.536.52.52 0 01-.465.268H97.982L84.454 80.938a1.611 1.611 0 00-1.971 0l-13.53 10.457H58.766a.52.52 0 01-.465-.267.52.52 0 010-.537l7.589-13.212h51.451a1.612 1.612 0 100-3.222H64.956a1.61 1.61 0 00-1.397.809l-8.053 14.02a3.721 3.721 0 00.006 3.755 3.722 3.722 0 003.254 1.877h2.682v19.442l-5.365 9.339a3.798 3.798 0 00-.035 3.8 3.64 3.64 0 003.196 1.844h2.203v20.959a3.762 3.762 0 00-3.222 3.716v4.297c0 .89.721 1.611 1.611 1.611h47.515a1.611 1.611 0 000-3.222H61.447v-2.686c0-.296.242-.537.538-.537h96.03c.296 0 .537.241.537.537v2.686h-53.923a1.61 1.61 0 100 3.222h55.534a1.61 1.61 0 001.611-1.611v-4.297a3.76 3.76 0 00-3.222-3.716v-16.177a1.61 1.61 0 10-3.223 0v16.134h-26.974v-20.916h5.37v13.427c0 .89.722 1.612 1.612 1.612h10.741c.89 0 1.612-.722 1.612-1.612v-13.427h12.974a3.72 3.72 0 003.253-1.876 3.72 3.72 0 00.006-3.756l-5.371-9.351V94.618h2.682zm-24.301-31.022h7.549v10.56h-7.549v-10.56zm.015 39.615h7.519v3.223h-7.519v-3.223zm7.519-3.222h-7.519v-5.371h7.519v5.37zm-34.682 3.222h7.519v3.223h-7.519v-3.223zm7.519-3.222h-7.519v-5.371h7.519v5.37zM72.31 129.043v13.427c0 .89.721 1.611 1.611 1.611h10.742a1.61 1.61 0 001.611-1.611v-13.427h5.371v20.916H64.67v-20.916h7.64zm10.742 0v5.371h-7.52v-5.371h7.52zm-7.52 8.593h7.52v3.223h-7.52v-3.223zm38.228 12.323h-7.52v-20.916h7.52v20.916zm3.222 0v-22.527a1.61 1.61 0 00-1.611-1.611h-10.742a1.61 1.61 0 00-1.611 1.611v22.527h-8.15v-21.736L110 116.526l15.132 11.697v21.736h-8.15zm19.966-9.1v-3.223h7.519v3.223h-7.519zm7.519-6.445h-7.519v-5.371h7.519v5.371zm16.661-8.861a.52.52 0 01-.464.268h-33.37l-12.575-9.72h41.289l5.121 8.915a.519.519 0 01-.001.537zm-5.798-12.674H77.99a1.611 1.611 0 100 3.222h27.291l-12.575 9.72H59.245a.431.431 0 01-.4-.224c-.047-.081-.14-.3.026-.581l5.12-8.915h16.72a1.611 1.611 0 100-3.222h-16.04V94.618h4.833c.357 0 .703-.118.985-.337L83.47 84.25l12.976 10.03c.282.219.629.337.985.337h9.131v13.427c0 .89.721 1.611 1.611 1.611h10.742a1.61 1.61 0 001.611-1.611V94.618h13.199v13.427c0 .89.721 1.611 1.611 1.611h10.742a1.61 1.61 0 001.611-1.611V94.618h7.64v18.261z" fill="#0F0F0E"/><path d="M88.839 91.395H78.097c-.89 0-1.61.722-1.61 1.612v15.038c0 .89.72 1.611 1.61 1.611H88.84a1.61 1.61 0 001.611-1.611V93.007c0-.89-.721-1.612-1.611-1.612zm-1.611 3.223v5.37h-7.52v-5.37h7.52zm-7.52 11.816v-3.223h7.52v3.223h-7.52z" fill="#000"/></svg>