<svg width="100" height="100" fill="none" xmlns="http://www.w3.org/2000/svg"><g clip-path="url(#clip0_170_1021)" fill="#EAA53C"><path d="M98.333 96.666H1.667a1.666 1.666 0 100 3.334h96.666a1.666 1.666 0 100-3.334z"/><path d="M50 0H6.667C5.745 0 5 .747 5 1.667v96.666c0 .92.745 1.667 1.667 1.667H50c.922 0 1.667-.747 1.667-1.667V1.667C51.667.747 50.922 0 50 0zm-1.667 96.667h-40V3.333h40v93.334z"/><path d="M43.333 6.667h-30c-.921 0-1.666.746-1.666 1.666v90c0 .92.745 1.667 1.666 1.667h30c.922 0 1.667-.747 1.667-1.667v-90c0-.92-.745-1.667-1.667-1.667zm-1.666 90H15V10h26.667v86.666zM93.333 0H50c-.922 0-1.667.747-1.667 1.667v96.666c0 .92.745 1.667 1.667 1.667h43.333c.922 0 1.667-.747 1.667-1.667V1.667C95 .747 94.255 0 93.333 0zm-1.666 96.667h-40V3.333h40v93.334z"/><path d="M86.667 6.667h-30c-.922 0-1.667.746-1.667 1.666v90c0 .92.745 1.667 1.667 1.667h30c.921 0 1.666-.747 1.666-1.667v-90c0-.92-.745-1.667-1.666-1.667zm-1.667 90H58.333V10H85v86.666z"/><path d="M63.333 41.666c-.921 0-1.666.747-1.666 1.667v20a1.666 1.666 0 103.333 0v-20c0-.92-.745-1.666-1.667-1.666zm-26.666 0c-.922 0-1.667.747-1.667 1.667v20a1.666 1.666 0 103.333 0v-20c0-.92-.745-1.666-1.666-1.666z"/></g><defs><clipPath id="clip0_170_1021"><path fill="#fff" d="M0 0h100v100H0z"/></clipPath></defs></svg>