<svg width="220" height="220" fill="none" xmlns="http://www.w3.org/2000/svg"><path fill="#B9AE9D" d="M0 0h220v220H0z"/><path d="M136.477 142.78l-12.075-53.83h.851a5.682 5.682 0 003.978-1.615 5.463 5.463 0 001.647-3.901 5.463 5.463 0 00-1.647-3.901 5.683 5.683 0 00-3.978-1.616H93.751a5.682 5.682 0 00-3.978 1.616 5.464 5.464 0 00-1.648 3.9c0 1.464.593 2.867 1.648 3.902a5.682 5.682 0 003.978 1.616h.85L82.526 142.78a1.083 1.083 0 00.222.929 1.134 1.134 0 00.877.412h5.626c.256 0 .504-.086.704-.244.2-.157.34-.377.394-.623l3.766-16.788h3.113l-2.341 16.398a1.084 1.084 0 00.265.877 1.135 1.135 0 00.849.38h5.625c.272 0 .534-.097.739-.271.204-.175.338-.416.376-.68l2.384-16.704h8.754l2.384 16.704a1.1 1.1 0 00.376.68c.205.174.467.271.738.271h5.626a1.131 1.131 0 001.078-.79c.046-.151.058-.311.036-.467l-2.341-16.398h3.113l3.765 16.788c.056.246.195.466.394.623.2.158.449.244.705.244h5.626a1.135 1.135 0 00.876-.412 1.086 1.086 0 00.222-.929zM90.375 83.434a3.282 3.282 0 01.99-2.34 3.41 3.41 0 012.386-.97h31.502a3.41 3.41 0 012.387.97c.633.62.988 1.462.988 2.34 0 .878-.355 1.72-.988 2.34a3.41 3.41 0 01-2.387.97H93.751a3.413 3.413 0 01-2.386-.97 3.282 3.282 0 01-.99-2.34zm24.831 36.412l-4.411-30.895h3.354l3.182 22.292a3.356 3.356 0 00-1.692 1.41 3.255 3.255 0 00-.432 2.135 3.287 3.287 0 001.014 1.937 3.405 3.405 0 002.021.9l.317 2.221h-3.353zm-2.272 0h-6.864l3.432-24.04 3.432 24.04zm7.897 0l-.315-2.207h2.392l.495 2.207h-2.572zm-2.282-4.414c-.298 0-.584-.116-.795-.323a1.094 1.094 0 01-.33-.78c0-.293.119-.573.33-.78.211-.207.497-.324.795-.324h3.369l.495 2.207h-3.864zm1.022-4.413l-3.15-22.068h.052l4.95 22.068h-1.852zm-21.398 8.827H95.6l.495-2.207h2.393l-.315 2.207zm.63-4.414H96c-.299 0-.585-.116-.796-.323a1.092 1.092 0 010-1.56c.211-.207.498-.324.796-.324h3.117l-.315 2.207zm.63-4.413H97.58l4.951-22.068h.052l-3.15 22.068zm-11.087 30.895h-3.322l11.881-52.963h3.322L95.258 111.1a3.39 3.39 0 00-1.65.894 3.292 3.292 0 00-.904 1.623 3.244 3.244 0 00.126 1.844 3.32 3.32 0 001.115 1.491l-.656 2.926a3.4 3.4 0 00-1.828.846 3.293 3.293 0 00-1.007 1.72 3.251 3.251 0 00.178 1.976 3.326 3.326 0 001.297 1.521l-3.583 15.973zm5.405-17.655c-.299 0-.585-.116-.796-.323a1.092 1.092 0 010-1.56c.211-.207.497-.323.796-.323h4.107l-.316 2.206h-3.791zm6.897 17.655h-3.353l7.56-52.963h3.353l-7.56 52.963zm5.107-19.861h19.498c.298 0 .584.116.795.323.211.207.33.487.33.78 0 .293-.119.573-.33.78a1.135 1.135 0 01-.795.323H105.44l.315-2.206zm15.954 19.861h-3.353l-2.205-15.448h3.353l2.205 15.448zm8.949 0l-3.583-15.973a3.332 3.332 0 001.297-1.521 3.243 3.243 0 00.177-1.976 3.29 3.29 0 00-1.006-1.72 3.399 3.399 0 00-1.829-.846l-6.937-30.927h3.321l11.881 52.963h-3.321z" fill="#0F0F0E"/></svg>