<svg width="80" height="80" fill="none" xmlns="http://www.w3.org/2000/svg"><circle opacity=".3" cx="40" cy="40" r="40" fill="#FFBE5B"/><path d="M27.2 31.774c1.119 0 1.963-1.178 1.963-2.742 0-1.563-.844-2.741-1.963-2.741-1.12 0-1.964 1.178-1.964 2.741 0 1.564.845 2.742 1.964 2.742zm0-4.387c.163 0 .654.584.654 1.645 0 1.062-.491 1.646-.654 1.646-.163 0-.655-.584-.655-1.646 0-1.061.492-1.645.655-1.645z" fill="#000"/><path d="M53.38 23H27.2c-2.57 0-4.582 2.65-4.582 6.032v12.613c0 1.212 1.172 2.194 2.618 2.194a2.98 2.98 0 001.31-.305v1.401c0 1.212 1.171 2.194 2.617 2.194s2.619-.982 2.619-2.194V41.34c.396.198.848.303 1.308.305 1.446 0 2.619-.982 2.619-2.193v-4.387H53.38c1.294 0 2.447-.674 3.273-1.775v1.226c0 1.212-1.173 2.194-2.619 2.194H43.563c-1.914.003-3.548 1.16-3.868 2.742h-.714c-.361 0-.654.245-.654.548v1.645h-.655c-.361 0-.654.246-.654.548v14.259c0 .303.293.548.654.548h5.236c.362 0 .655-.245.655-.548V42.194c0-.303-.293-.549-.655-.549h-.654V40c0-.303-.293-.548-.655-.548h-.561c.297-.966 1.335-1.642 2.525-1.645h10.472c2.168-.002 3.925-1.474 3.928-3.29v-5.485C57.962 25.65 55.95 23 53.38 23zM39.637 40.548h1.309v1.097h-1.31v-1.097zm2.618 2.194v13.161h-3.927V42.742h3.927zM27.2 24.097c1.774 0 3.272 2.26 3.272 4.935 0 2.676-1.498 4.936-3.272 4.936-1.774 0-3.273-2.26-3.273-4.936 0-2.675 1.499-4.935 3.273-4.935zm7.2 15.355c0 .605-.587 1.096-1.31 1.096-.723 0-1.309-.49-1.309-1.096v-1.645h-1.309v7.128c0 .606-.586 1.097-1.309 1.097s-1.309-.49-1.309-1.096v-4.388h-1.309v1.097c0 .606-.586 1.097-1.309 1.097s-1.309-.491-1.309-1.097V33.29c.826 1.1 1.978 1.775 3.273 1.775h7.2v4.387zm18.98-5.484H29.86c1.326-1.4 2.008-3.15 1.922-4.936.086-1.785-.596-3.536-1.922-4.935h23.52c1.775 0 3.273 2.26 3.273 4.935 0 2.676-1.498 4.936-3.272 4.936z" fill="#000"/><path d="M40.945 53.71h-1.31v1.096h1.31V53.71z" fill="#000"/></svg>