<svg width="220" height="220" fill="none" xmlns="http://www.w3.org/2000/svg"><path fill="#B9AE9D" d="M0 0h220v220H0z"/><path d="M146.667 79.196a6.122 6.122 0 00-6.111-6.111h-36.667a6.118 6.118 0 00-6.111 6.111v20.778H79.444a6.117 6.117 0 00-6.11 6.111v29.333a1.221 1.221 0 001.222 1.223h.162l1.072 7.506a1.223 1.223 0 001.21 1.049h4.889a1.221 1.221 0 001.21-1.049l1.072-7.506h36.991l1.073 7.506a1.219 1.219 0 001.209 1.049h4.889a1.22 1.22 0 001.21-1.049l1.073-7.506h6.435l1.072 7.506a1.222 1.222 0 001.21 1.049h4.889a1.222 1.222 0 001.21-1.049l1.222-8.556h-.001c.009-.057.013-.115.014-.173V79.196zm-6.111-3.667a3.67 3.67 0 013.666 3.667v55h-22v-28.111a3.674 3.674 0 013.667-3.667h12.222a1.21 1.21 0 00.864-.358 1.203 1.203 0 00.358-.864v-22a6.072 6.072 0 00-1.225-3.667h2.448zm-40.334 3.667a3.672 3.672 0 013.667-3.667h29.333a3.673 3.673 0 013.667 3.667v20.778h-18.333a6.118 6.118 0 00-6.112 6.111v3.877a3.63 3.63 0 00-1.222-.21h-11V79.196zm12.222 40.333H83.111v-6.111a1.225 1.225 0 011.222-1.222h26.889a1.222 1.222 0 011.222 1.222v6.111zm-29.333 2.445h29.333v12.222H83.111v-12.222zm3.667-19.556h11v7.334H84.333a3.636 3.636 0 00-1.222.21v-3.877a3.673 3.673 0 013.667-3.667zm-11 3.667a3.673 3.673 0 013.666-3.667h2.448a6.082 6.082 0 00-1.225 3.667v28.111h-4.89v-28.111zm2.282 36.667l-.873-6.111h4.515l-.873 6.111H78.06zm36.829-36.667a3.674 3.674 0 013.667-3.667h2.447a6.081 6.081 0 00-1.225 3.667v28.111h-4.889v-28.111zm12.384 36.667h-2.768l-.874-6.111h4.515l-.873 6.111zm13.12 0l-.873-6.111h4.515l-.873 6.111h-2.769z" fill="#0F0F0E"/></svg>