<svg width="60" height="60" fill="none" xmlns="http://www.w3.org/2000/svg"><g clip-path="url(#clip0_170_1069)"><path d="M59.267 5.4H.733A.733.733 0 000 6.133v20.586c0 .062.01.124.025.184a4.666 4.666 0 00-.025.485.733.733 0 101.466 0s0 0 0 0a3.178 3.178 0 011.13-2.434 3.139 3.139 0 012.556-.698c.843.144 1.675.349 2.489.612a16.577 16.577 0 008.673.393 40 40 0 016.49-.88.733.733 0 00-.078-1.465c-.583.031-1.166.075-1.749.13V18.36h18.046v10.027h-.692a16.68 16.68 0 00-6.226-4.311.733.733 0 10-.54 1.362 15.19 15.19 0 017.03 5.656c.273.407.538.826.787 1.244a10.51 10.51 0 008.981 5.144h1.223a8.959 8.959 0 018.948 8.95v4.943h-25.77a.733.733 0 10-.001 1.466h26.504a.733.733 0 00.733-.733V6.133a.733.733 0 00-.733-.733zm-.733 11.494h-8.29V6.866h8.29v10.028zm-29.267 0H11.222V6.866h18.045v10.028h0zM1.466 6.866h8.29v10.028h-8.29V6.866zm18.046 16.349c-1.183.155-2.357.36-3.514.615-2.62.586-5.349.462-7.906-.357-.88-.285-1.78-.506-2.693-.662A4.601 4.601 0 001.466 24v-5.64h18.046v4.855zm11.221-16.35h18.046v10.029H30.733V6.866zM49.511 18.36h9.023v10.027H40.49V18.36h9.022zm.075 17.656h-1.223a9.037 9.037 0 01-7.722-4.427 28.228 28.228 0 00-.83-1.313 16.525 16.525 0 00-.297-.423h19.02v11.258a10.418 10.418 0 00-8.948-5.095z" fill="#EAA53C" stroke="#EAA53C" stroke-width=".6"/><path d="M45.432 9.706a.702.702 0 00.27.328.745.745 0 00.407.124.717.717 0 00.676-.452.736.736 0 00.043-.424.687.687 0 00-.043-.137.629.629 0 00-.067-.127.663.663 0 00-.09-.112.74.74 0 00-1.038 0 .755.755 0 00-.157.239.716.716 0 00-.057.28c0 .096.02.192.056.28zm-19.518.327c.08.053.17.09.264.11a.744.744 0 00.661-.2.729.729 0 00.09-.925.663.663 0 00-.201-.204.843.843 0 00-.127-.068.746.746 0 00-.423-.042.739.739 0 00-.59.72.72.72 0 00.326.61h0zm0 3.018a.706.706 0 00.264.108.69.69 0 00.286 0 .699.699 0 00.376-.2.665.665 0 00.09-.111.72.72 0 00.125-.407.746.746 0 00-.215-.519.753.753 0 00-.661-.2.738.738 0 00-.59.72.738.738 0 00.325.609zm19.788 0a.86.86 0 00.127.068.746.746 0 00.28.055.733.733 0 10-.407-.123zm-3.38-3.345a.746.746 0 00.158.238.762.762 0 00.518.214.755.755 0 00.407-.124.665.665 0 00.204-.202c.025-.04.048-.083.068-.126a.756.756 0 00-.068-.688.785.785 0 00-.204-.203.751.751 0 00-.264-.108.684.684 0 00-.286 0 .693.693 0 00-.376.2.658.658 0 00-.09.111.722.722 0 00-.068.688zM42.55 21.2a.742.742 0 00.398.398.737.737 0 00.8-.16.652.652 0 00.09-.11.725.725 0 00.11-.264.73.73 0 00-1-.82.642.642 0 00-.126.068.737.737 0 00-.271.888zm3.694.454a.73.73 0 00.72-.59.733.733 0 10-.72.59v0h0zm9.568 10.124a.74.74 0 00-.608.327.732.732 0 00-.11.55.784.784 0 00.11.265.753.753 0 00.201.201.702.702 0 00.264.11.69.69 0 00.286 0 .748.748 0 00.376-.201.734.734 0 00-.519-1.252h0zm-12.99-7.138a.696.696 0 00.407.125.74.74 0 00.407-.125.727.727 0 00.201-1.016.671.671 0 00-.201-.203.739.739 0 00-.55-.108.708.708 0 00-.467.31.761.761 0 00-.109.265.737.737 0 00.311.751z" fill="#EAA53C" stroke="#EAA53C" stroke-width=".6"/><path d="M.733 30.77a.733.733 0 00-.733.732v20.606c0 .405.328.733.733.733h20.731a.733.733 0 000-1.466H1.466V31.502a.733.733 0 00-.733-.732z" fill="#EAA53C"/><path d="M.733 30.77a.733.733 0 00-.733.732v20.606c0 .405.328.733.733.733h20.731a.733.733 0 000-1.466H1.466V31.502a.733.733 0 00-.733-.732s0 0 0 0v0z" stroke="#EAA53C" stroke-width=".6"/><path d="M5.564 40.532a3.029 3.029 0 003.025 3.026h.135a3.028 3.028 0 002.925-2.25l.256-.968a1.56 1.56 0 011.507-1.16 3.04 3.04 0 002.995-2.598l.275-1.923a.733.733 0 00-1.45-.207l-.276 1.923a1.567 1.567 0 01-1.543 1.339 3.028 3.028 0 00-2.925 2.25l-.256.968a1.56 1.56 0 01-1.507 1.16h-.136a1.561 1.561 0 01-1.559-1.56v-1.32a.733.733 0 00-1.466 0v1.32zm.733-4.159a.733.733 0 00.733-.732v-.397a.733.733 0 00-1.466 0v.397c0 .404.328.732.733.732zm35.089 7.255l1.297.408c.502.158.894.552 1.05 1.054l.287.927a3.067 3.067 0 005.997-.907v-2.248a.733.733 0 00-1.466 0v2.248a1.602 1.602 0 01-3.132.473l-.287-.927a3.067 3.067 0 00-2.008-2.018l-1.297-.408a1.591 1.591 0 01-1.101-1.28l-.246-1.572a.733.733 0 10-1.45.211c0 .005 0 .01.002.016l.246 1.571a3.05 3.05 0 002.108 2.452zm-7.281-3.746H30.4a.733.733 0 100 1.465h3.706a1.967 1.967 0 001.786-2.791l-6.87-14.874a1.967 1.967 0 00-3.57 0l-6.87 14.874a1.967 1.967 0 001.786 2.791h6.136v1.623a2.694 2.694 0 00-1.958 2.587v6.351a2.69 2.69 0 005.382.003v-6.354a2.693 2.693 0 00-1.958-2.588v-5.815a.733.733 0 10-1.466 0v2.728h-6.137a.501.501 0 01-.454-.712l6.869-14.873a.5.5 0 01.91 0l6.87 14.873a.501.501 0 01-.456.711v0zm-5.644 5.674v6.352a1.225 1.225 0 11-2.45.002v-6.354a1.225 1.225 0 112.45-.002v.002z" fill="#EAA53C" stroke="#EAA53C" stroke-width=".6"/></g><defs><clipPath id="clip0_170_1069"><path fill="#fff" d="M0 0h60v60H0z"/></clipPath></defs></svg>