<svg width="30" height="30" fill="none" xmlns="http://www.w3.org/2000/svg"><g clip-path="url(#clip0_55_357)"><path d="M15 30c8.284 0 15-6.716 15-15 0-8.284-6.716-15-15-15C6.716 0 0 6.716 0 15c0 8.284 6.716 15 15 15z" fill="#fff"/><g clip-path="url(#clip1_55_357)"><path d="M20.728 16.534c-.28-.355-.2-.512 0-.83.004-.003 2.321-3.206 2.56-4.292l.002-.001c.119-.396 0-.687-.574-.687h-1.899c-.483 0-.706.25-.826.53 0 0-.967 2.314-2.334 3.814-.442.433-.646.572-.887.572-.119 0-.303-.139-.303-.535v-3.694c0-.475-.135-.687-.536-.687h-2.986c-.303 0-.483.222-.483.428 0 .45.684.553.755 1.82v2.748c0 .602-.11.713-.352.713-.645 0-2.212-2.324-3.14-4.984-.188-.516-.371-.724-.858-.724h-1.9c-.542 0-.651.25-.651.529 0 .493.645 2.947 3.002 6.19 1.57 2.213 3.782 3.412 5.793 3.412 1.21 0 1.357-.267 1.357-.725 0-2.114-.109-2.314.497-2.314.28 0 .764.139 1.893 1.206 1.29 1.266 1.502 1.833 2.225 1.833h1.899c.54 0 .815-.267.657-.792-.36-1.105-2.801-3.378-2.911-3.53z" fill="#212121"/></g></g><defs><clipPath id="clip0_55_357"><path fill="#fff" d="M0 0h30v30H0z"/></clipPath><clipPath id="clip1_55_357"><path fill="#fff" transform="translate(6.316 7.105)" d="M0 0h17.368v17.368H0z"/></clipPath></defs></svg>