<svg width="80" height="80" fill="none" xmlns="http://www.w3.org/2000/svg"><circle opacity=".3" cx="40" cy="40" r="40" fill="#FFBE5B"/><g clip-path="url(#clip0_166_605)" fill="#000"><path d="M22.64 57.793c-.07 0-.142 0-.177-.035a.612.612 0 01-.426-.355l-1.953-3.622c-.177-.355-.07-.78.284-.958l1.172-.64-.64-1.348c-.141-.32-.035-.71.25-.888l1.278-.816-.675-1.42c-.142-.32-.035-.71.248-.888l1.314-.888-.675-1.49a.69.69 0 01-.035-.462l1.35-5.148c-2.131-1.953-2.983-5.041-2.167-7.988.569-2.024 1.882-3.728 3.728-4.757 1.846-1.03 3.94-1.278 6-.71 4.189 1.172 6.639 5.538 5.432 9.727-.817 2.983-3.267 5.361-6.036 5.93l-4.047 14.129c-.035.177-.177.32-.32.426l-3.55 2.059a.51.51 0 01-.355.142zm-.994-4.047l1.278 2.343 2.663-1.562 4.083-14.272a.682.682 0 01.568-.497c2.414-.32 4.58-2.378 5.325-5.006A6.438 6.438 0 0031.09 26.8a6.528 6.528 0 00-4.9.568 6.509 6.509 0 00-3.052 3.87c-.71 2.52.106 5.183 2.059 6.78a.737.737 0 01.248.746l-1.384 5.325.816 1.811c.142.32.036.674-.249.888l-1.313.852.674 1.384c.143.32.036.71-.248.888l-1.278.816.675 1.385a.688.688 0 01-.285.923l-1.207.71z"/><path d="M30.06 32.942c-.213 0-.461-.036-.674-.107-.64-.178-1.172-.603-1.527-1.172a2.474 2.474 0 01-.213-1.881c.39-1.314 1.775-2.095 3.089-1.74.639.178 1.171.604 1.526 1.172.32.568.391 1.243.213 1.882a2.494 2.494 0 01-2.413 1.846zm0-3.55c-.461 0-.923.319-1.03.78-.07.285-.035.569.107.817a1.1 1.1 0 00.64.497c.567.177 1.171-.178 1.348-.745a1.089 1.089 0 00-.106-.817 1.1 1.1 0 00-.64-.497c-.141-.035-.212-.035-.319-.035zm6.106 6.532a6.757 6.757 0 01-4.153-1.42c-.32-.249-.355-.675-.142-.994.249-.32.675-.355.994-.142.959.745 2.095 1.1 3.301 1.1a5.27 5.27 0 002.734-.745.689.689 0 01.959.248.688.688 0 01-.249.959c-1.03.675-2.236.994-3.444.994z"/><path d="M30.096 29.392h-.035a.737.737 0 01-.675-.746c.248-3.55 3.23-6.32 6.78-6.32 3.16 0 5.965 2.237 6.64 5.361a.723.723 0 01-.533.852.723.723 0 01-.852-.532c-.532-2.52-2.734-4.296-5.255-4.296-2.804 0-5.183 2.201-5.36 5.006-.036.355-.355.675-.71.675z"/><path d="M52.852 52.538a.7.7 0 01-.496-.212l-12.071-12.07c-.284-.285-.923-1.03-.923-1.918l-.746-7.846v-.071c0-.959.284-1.669.923-2.343.64-.639 1.35-.923 2.166-.923h.248l7.846.71c.923 0 1.633.675 1.918.923l12.07 12.07a.686.686 0 010 .995L53.35 52.326c-.106.142-.283.212-.497.212zM40.036 30.386l.746 7.845v.072c0 .283.213.638.532.958l11.574 11.573 9.408-9.443-11.574-11.574c-.32-.319-.71-.532-.958-.532h-.071l-7.988-.745c-.426 0-.781.177-1.136.532-.39.39-.533.745-.533 1.314z"/><path d="M47.492 40.078a.702.702 0 01-.497-.213.687.687 0 010-.995l3.443-3.443a.686.686 0 01.994 0 .686.686 0 010 .994l-3.443 3.444a.702.702 0 01-.497.213zm4.011 4.012a.7.7 0 01-.496-.214.686.686 0 010-.994l3.443-3.444a.687.687 0 01.994 0 .687.687 0 010 .994L52 43.877a.702.702 0 01-.497.213z"/></g><defs><clipPath id="clip0_166_605"><path fill="#fff" transform="translate(20 18)" d="M0 0h44v44H0z"/></clipPath></defs></svg>