<svg width="80" height="80" fill="none" xmlns="http://www.w3.org/2000/svg"><circle opacity=".3" cx="40" cy="40" r="40" fill="#FFBE5B"/><path d="M43.312 39.5l-1.8-1.8a1.273 1.273 0 00-1.8 0l-3.15 3.15a2.545 2.545 0 103.6 3.6l3.15-3.15a1.274 1.274 0 000-1.8zm-4.05 4.05a1.273 1.273 0 01-1.8-1.8l.9-.901 1.8 1.8-.9.9zm1.8-1.8l-1.8-1.8 1.35-1.35 1.8 1.8-1.35 1.35zm4.847-9.555a1.909 1.909 0 102.7 2.7 1.91 1.91 0 00-2.7-2.7zm1.8 1.8a.637.637 0 11-.9-.9.637.637 0 01.9.9z" fill="#000"/><path d="M57.358 36.827l-.034-.017a10.169 10.169 0 00-13.127-13.12l-.013-.028a1.24 1.24 0 00-.742-.661 1.29 1.29 0 00-1.013.086 11.467 11.467 0 00-5.469 6.46l-8.186-8.185a1.232 1.232 0 00-1.523-.176A6.861 6.861 0 0025 23.44a1.23 1.23 0 00.176 1.523l8.238 8.237.45.45c.212.277.282.638.188.974a.958.958 0 00.515 1 .947.947 0 001.096-.174l1.05 1.05-14.204 15.623a1.907 1.907 0 00.064 2.634l.941.941v.001l1.8 1.8h.001l.941.942c.72.722 1.881.75 2.635.062l15.748-14.317c1.042.306 2.122.463 3.208.467a11.432 11.432 0 0010.067-6.055c.175-.313.21-.684.1-1.024a1.247 1.247 0 00-.655-.746zM54.111 26.9a8.97 8.97 0 012.061 9.365l-1.736-.822a6.99 6.99 0 00-8.866-8.868l-.82-1.737a8.971 8.971 0 019.36 2.062zm-2.116 7.387a4.335 4.335 0 00-1.254-3.25l-.767-.767a4.336 4.336 0 00-3.25-1.254l-.601-1.273a5.699 5.699 0 017.145 7.147l-1.273-.603zM37.39 49.055a9.026 9.026 0 01-1.757-1.176c-.741-.604-1.314-1.175-1.32-1.18-.005-.006-.575-.579-1.179-1.319a9.027 9.027 0 01-1.177-1.758l6.08-6.688.007-.005c.003-.003.004-.007.006-.01l2.135-2.348.428.429 2.7 2.7 3.128 3.127-9.05 8.228zm-12.545 6.174l7.776-8.486c.438.5.774.837.793.856.022.022.357.356.855.792l-8.486 7.776-.938-.938zM37.462 33.65l.9-.9.921.92-1.715 1.886-1.006-1.006.9-.9zm9.829 6.228l-6.158-6.158 3.698-2.753a3.229 3.229 0 014.243.203l.768.767a3.23 3.23 0 01.203 4.244l-2.754 3.697zM40.615 26a9.975 9.975 0 012.419-1.79l1.626 3.425v.005l.004.005.76 1.601a4.81 4.81 0 00-1.353.7l-3.848 2.865-.961-.962a.95.95 0 00.173-1.096.964.964 0 00-.998-.515 2.136 2.136 0 01-.366.022A10.034 10.034 0 0140.615 26zm-13.722-2.92c.305-.298.634-.571.982-.818l7.788 7.787-1.802 1.802-7.78-7.742c.23-.373.502-.719.812-1.03zm7.87 9.67l1.8-1.8a2.02 2.02 0 001.231.568l-1.655 1.654-.808.809a2.025 2.025 0 00-.568-1.231zM23.45 52.978l7.602-8.36c.228.39.481.767.757 1.126l-7.866 8.584-.471-.472a.636.636 0 01-.022-.878zm4.583 4.583a.636.636 0 01-.878-.021l-.472-.472 8.584-7.866c.36.276.736.529 1.127.758l-8.36 7.6zM55.011 40.4a10.115 10.115 0 01-9.244 2.759l2.023-1.84a.797.797 0 00.039-.052c.012-.015.032-.022.043-.038l3.193-4.288c.304-.412.54-.869.7-1.354l1.587.75c.007.004.011.01.019.014l.017.003 2.85 1.348.007.004.004.003h.002l.545.278A10.134 10.134 0 0155.01 40.4z" fill="#000"/></svg>