<svg width="90" height="90" fill="none" xmlns="http://www.w3.org/2000/svg"><path d="M85.37 72.152a1.406 1.406 0 00-.995-.412 1.407 1.407 0 01-1.406-1.406c0-.373-.148-.73-.41-.995L69.921 56.683a1.407 1.407 0 00-.995-.413 1.406 1.406 0 01-1.406-1.407c0-.373-.148-.73-.412-.994l-2.812-2.812a1.407 1.407 0 00-.985-.412l-6.48-.02-4.219-4.203a2.04 2.04 0 01.041-2.903l15.69-17.055a11.57 11.57 0 000-16.364l-5.28-5.275a11.637 11.637 0 00-16.44 0l-.218.218-.824-.824a4.922 4.922 0 00-6.79 0l-35.98 35.98a4.8 4.8 0 000 6.79l1.003 1.002-2.172 3.261a1.406 1.406 0 00.175 1.773l3.807 3.807v25.434a6.328 6.328 0 1012.656 0V71.719a2.813 2.813 0 015.625 0 5.625 5.625 0 1011.25 0V39.957L54.844 20.27a4.801 4.801 0 000-6.79l-2.23-2.23.815-.816a2.05 2.05 0 012.83 0l6.468 6.47a1.975 1.975 0 01-.042 2.812l-15.68 17.048a11.659 11.659 0 000 16.471l3.62 3.603.021 6.443c.003.37.15.723.412.985l2.813 2.812c.263.264.62.412.994.412a1.406 1.406 0 011.406 1.406c0 .373.148.73.41.995l12.636 12.656a1.406 1.406 0 00.996.422 1.406 1.406 0 011.406 1.406c0 .373.148.73.412.994l2.812 2.813c.264.263.622.412.995.412h2.812c.373 0 .73-.148.994-.412l4.069-4.066c.054-.04.105-.084.153-.132l4.219-4.219c.262-.264.41-.621.409-.994V75.96c0-.373-.148-.73-.412-.995l-2.813-2.812zM7.21 54.44l-2.588-2.587 1.221-1.828 3.2 3.193L7.21 54.44zm25.134 17.28a2.813 2.813 0 01-5.625 0 5.625 5.625 0 00-11.25 0v10.547a3.515 3.515 0 11-7.031 0V57.002l2.632-1.756 1.004 1.004a4.8 4.8 0 006.79 0l13.48-13.48v28.949zm20.511-56.25a1.99 1.99 0 010 2.812l-35.98 35.98a2.06 2.06 0 01-2.813 0L4.802 45a1.99 1.99 0 010-2.813l35.98-35.98a1.99 1.99 0 012.813 0l9.261 9.262zm-3.861 35.775a8.86 8.86 0 01.04-12.535L64.71 21.655a4.781 4.781 0 000-6.75l-6.469-6.468a4.922 4.922 0 00-6.806 0l-.816.815-2.224-2.222.218-.218a8.823 8.823 0 0112.462 0l5.275 5.28a8.76 8.76 0 01-.042 12.43L50.625 41.578a4.84 4.84 0 000 6.84l3.632 3.614-2.226 2.233-3.037-3.02zm4.455 8.654l-.011-3.066 3.389-3.395 3.07.009-6.448 6.452zm3.234 5.203a4.179 4.179 0 00-1.184-.37l-1.458-1.45 9.25-9.25 1.464 1.464c.063.405.186.799.364 1.169L56.683 65.1zM72.131 80.57a4.172 4.172 0 00-1.183-.371L59.041 68.274a4.18 4.18 0 00-.37-1.184l8.438-8.438a4.18 4.18 0 001.198.377l11.906 11.924c.063.405.186.8.365 1.168l-8.447 8.448zm13.65-2.382l-3.656 3.656c-.055.04-.106.084-.153.132l-3.804 3.805H76.52l-2.035-2.036a4.17 4.17 0 00-.371-1.183l8.437-8.437c.377.186.781.313 1.197.377l2.033 2.039v1.647z" fill="#EAA53C"/></svg>