<svg width="30" height="30" fill="none" xmlns="http://www.w3.org/2000/svg"><g clip-path="url(#clip0_54_346)"><path d="M15 30c8.284 0 15-6.716 15-15 0-8.284-6.716-15-15-15C6.716 0 0 6.716 0 15c0 8.284 6.716 15 15 15z" fill="#fff"/><path d="M6.864 13.885L21.326 8.31c.671-.243 1.258.164 1.04 1.179l.002-.002-2.463 11.602c-.183.822-.671 1.022-1.355.635L14.8 18.96l-1.809 1.742c-.2.2-.368.37-.756.37l.266-3.817 6.95-6.279c.303-.266-.067-.416-.466-.151l-8.589 5.408-3.702-1.155c-.804-.255-.821-.804.17-1.192z" fill="#212121"/></g><defs><clipPath id="clip0_54_346"><path fill="#fff" d="M0 0h30v30H0z"/></clipPath></defs></svg>