<svg width="220" height="220" fill="none" xmlns="http://www.w3.org/2000/svg"><path fill="#B9AE9D" d="M0 0h220v220H0z"/><path d="M161.563 89.118a6.632 6.632 0 00-6.629-6.618h-20.708c-.8 0-1.592.152-2.335.45a2.492 2.492 0 00-1.429-.45h-16.861c-.8 0-1.592.152-2.335.45a2.492 2.492 0 00-1.429-.45H92.976a6.222 6.222 0 00-4.429 1.834 14.683 14.683 0 00-4.328 10.45v1.466H65.645a6.874 6.874 0 00-6.862 7.304l1.377 22.022a1.718 1.718 0 001.715 1.612h1.719v5.156a1.717 1.717 0 001.718 1.719h6.876a1.72 1.72 0 001.718-1.719v-5.156h55v5.156a1.72 1.72 0 001.719 1.719h6.875a1.72 1.72 0 001.719-1.719v-5.156h3.437v5.156a1.72 1.72 0 001.719 1.719h6.875a1.72 1.72 0 001.719-1.719v-6.39a58.198 58.198 0 008.594-30.45v-6.386zm-32.657 5.667a11.273 11.273 0 013.322-8.02h0a2.807 2.807 0 011.998-.828h14.8a14.505 14.505 0 00-2.932 8.78v1.533h-17.188v-1.465zm22.005 8.554l-1.276 20.411h-12.024l1.262-20.196a6.893 6.893 0 00-.912-3.867h9.519a3.437 3.437 0 013.431 3.652v0zm-39.308-16.574h0a2.807 2.807 0 011.998-.828h14.805a14.67 14.67 0 00-2.937 8.848v2.39a6.87 6.87 0 00-3.204 4.172 6.85 6.85 0 00.691 5.216h-11.237a5.136 5.136 0 00-3.438 1.317V94.785a11.273 11.273 0 013.322-8.02v0zM70.469 110h13.75a1.723 1.723 0 011.719 1.719v1.719h-15.47V110zm18.906 1.719A1.72 1.72 0 0191.094 110h13.75a1.723 1.723 0 011.719 1.719v1.719H89.375v-1.719zm20.625 0a1.723 1.723 0 011.719-1.719h13.75a1.723 1.723 0 011.719 1.719v1.719H110v-1.719zM87.656 94.785a11.266 11.266 0 013.322-8.02 2.807 2.807 0 011.998-.828h14.805a14.67 14.67 0 00-2.937 8.848v11.778h-13.75a5.11 5.11 0 00-.98.094 6.863 6.863 0 00-2.458-9.482v-2.39zm0 8.34a3.445 3.445 0 01-3.437 3.438H74.7a6.857 6.857 0 000-6.876h9.518a3.443 3.443 0 013.437 3.438v0zm-25.442.214a3.432 3.432 0 01.925-2.568 3.447 3.447 0 012.506-1.084h3.105a3.44 3.44 0 013.438 3.438 3.438 3.438 0 01-3.438 3.438 1.72 1.72 0 00-1.719 1.718v6.875a1.721 1.721 0 001.719 1.719h60.156c.456 0 .893-.181 1.216-.503.322-.323.503-.76.503-1.216v-6.875a1.718 1.718 0 00-1.719-1.718 3.439 3.439 0 010-6.876h3.105a3.437 3.437 0 013.431 3.652l-1.275 20.411H63.49l-1.276-20.411zm8.255 27.286H67.03v-3.437h3.438v3.437zm65.312 0h-3.437v-3.437h3.437v3.437zm10.313 0v-3.437h3.437v3.437h-3.437zm12.031-35.12a54.749 54.749 0 01-4.663 22.124l.88-14.075a6.87 6.87 0 00-4.811-6.988v-1.848a11.124 11.124 0 013.246-7.877l.069-.068a2.792 2.792 0 012.003-.835h.085a3.189 3.189 0 013.191 3.18v6.386z" fill="#0F0F0E" stroke="#B9AE9D"/></svg>