<svg width="62" height="62" fill="none" xmlns="http://www.w3.org/2000/svg"><g clip-path="url(#clip0_170_1058)"><path d="M24.795 56.285a.908.908 0 000-1.285l-2.047-2.047a.908.908 0 10-1.284 1.284l2.047 2.048a.908.908 0 001.284 0zm15.741-3.332a.908.908 0 00-1.284 0L37.205 55a.908.908 0 101.284 1.285l2.047-2.047a.908.908 0 000-1.285zM56.853 3.86H44.97a2.12 2.12 0 00-2.095-1.816h-1.706A2.12 2.12 0 0039.053 0H22.947a2.12 2.12 0 00-2.115 2.044h-1.706a2.12 2.12 0 00-2.095 1.816H5.146c-1.598-.008-2.92 1.328-2.92 2.921 0 1.61 1.31 2.921 2.92 2.921h11.885a2.12 2.12 0 002.095 1.816h1.702v.695c0 .367.096.729.277 1.047l3.498 6.158a.3.3 0 01.04.15V31.74a.908.908 0 101.816 0v-6.675h3.633v14.532h-3.33a.303.303 0 01-.303-.303v-3.316a.908.908 0 10-1.816 0v3.316c0 1.168.95 2.12 2.119 2.12h1.14v15.707c0 .385.106.763.305 1.094l1.186 1.968H12.305a.908.908 0 000 1.816h37.39a.908.908 0 100-1.816H32.607l1.186-1.968c.2-.331.305-.71.305-1.094V41.414h1.14c1.169 0 2.12-.95 2.12-2.12V19.568c0-.052.013-.104.039-.15l3.498-6.157c.181-.319.277-.68.277-1.047v-.695h1.702a2.12 2.12 0 002.095-1.816h4a.908.908 0 000-1.816h-3.976v-2.21h11.86c.61 0 1.105.496 1.105 1.105a1.12 1.12 0 01-1.105 1.105h-3.647a.908.908 0 000 1.816h3.647c1.58.007 2.921-1.337 2.921-2.92a2.924 2.924 0 00-2.92-2.922zM17.008 7.886H5.147A1.106 1.106 0 014.041 6.78c0-.6.504-1.107 1.104-1.104h11.861v2.209zm3.821 1.816h-1.702a.303.303 0 01-.303-.303V4.163c0-.167.136-.302.303-.302h1.702V9.7zm5.45-7.886h9.445v8.189a.303.303 0 01-.303.302h-8.84a.303.303 0 01-.303-.302V1.816zm6.003 55.306a.304.304 0 01-.044.157L31 59.332l-1.237-2.054a.303.303 0 01-.044-.156V41.414h2.562v15.708zm3.26-17.827a.303.303 0 01-.303.303h-3.33V25.066h3.633v14.229zm3.815-27.082a.304.304 0 01-.04.15l-3.498 6.157c-.181.319-.277.68-.277 1.047v3.683H26.46v-3.683c0-.366-.096-.728-.277-1.047l-3.498-6.157a.304.304 0 01-.04-.15V2.12c0-.167.136-.303.303-.303h1.514v8.189c0 1.168.95 2.119 2.12 2.119h8.839c1.168 0 2.12-.95 2.12-2.12V1.817h1.513c.167 0 .303.136.303.303v10.094zm3.82-2.814a.303.303 0 01-.302.303h-1.702V3.86h1.702c.167 0 .303.135.303.302V9.4zm-25.98 44.607a.908.908 0 00.057 1.283l3.281 3.002a.908.908 0 001.226-1.34l-3.28-3.002a.908.908 0 00-1.284.057zm24.27 4.285l3.28-3.002a.908.908 0 10-1.225-1.34l-3.281 3.002a.908.908 0 101.226 1.34z" fill="#EAA53C"/></g><defs><clipPath id="clip0_170_1058"><path fill="#fff" d="M0 0h62v62H0z"/></clipPath></defs></svg>