<svg width="220" height="220" fill="none" xmlns="http://www.w3.org/2000/svg"><path fill="#B9AE9D" d="M0 0h220v220H0z"/><path d="M105.703 130.674a1.61 1.61 0 00-1.611 1.611v3.258a1.611 1.611 0 003.222 0v-3.258a1.61 1.61 0 00-1.611-1.611z" fill="#0F0F0E"/><path d="M82.305 106.683h-6.27a2.69 2.69 0 00-2.686 2.686v16.175a2.688 2.688 0 002.685 2.686h6.271a2.688 2.688 0 002.686-2.686v-16.175a2.69 2.69 0 00-2.686-2.686zm-.537 18.324h-5.196v-15.101h5.196v15.101zm62.197-18.324h-6.27a2.69 2.69 0 00-2.686 2.686v16.175a2.688 2.688 0 002.686 2.686h6.27a2.688 2.688 0 002.686-2.686v-16.175a2.69 2.69 0 00-2.686-2.686zm-.537 18.324h-5.196v-15.101h5.196v15.101zm-32.726-31.292h-1.404a6.329 6.329 0 00-6.322 6.322v6.125a2.32 2.32 0 002.318 2.318h9.412a2.32 2.32 0 002.318-2.318v-6.125a6.329 6.329 0 00-6.322-6.322zm-4.505 11.542v-5.22c0-1.71 1.391-3.1 3.101-3.1h1.404c1.709 0 3.1 1.39 3.1 3.1v5.22h-7.605z" fill="#000"/><path d="M163.389 146.767h-7.574v-47.56h6.499c.874 0 1.622-.41 2.002-1.1.379-.689.327-1.541-.139-2.28l-13.181-20.853c-.607-.961-1.873-1.659-3.01-1.659h-33.932l-2.128-2.567a2.504 2.504 0 00-1.926-.924c-.738 0-1.439.337-1.926.924l-2.128 2.567H72.014c-1.137 0-2.403.698-3.01 1.659l-13.18 20.853c-.467.74-.52 1.591-.14 2.28.38.69 1.128 1.1 2.002 1.1h6.5v34.374a8.478 8.478 0 00-2.532 7.445h-.684a2.689 2.689 0 00-2.685 2.685v3.056H56.61a1.612 1.612 0 000 3.222h106.78a1.61 1.61 0 100-3.222zm-6.614-56.62h-28.766l-2.137-2.577h29.273l1.63 2.578zm-5.297-8.378l1.63 2.578H123.2l-2.137-2.578h30.415zm-3.509-5.23a.73.73 0 01.312.171l1.16 1.836h-31.05l-1.665-2.008h31.243zm-79.447 5.23h10.755a1.612 1.612 0 000-3.223h-8.72l1.162-1.837a.74.74 0 01.31-.17h31.245l-1.665 2.007H86.797a1.611 1.611 0 100 3.223h12.14L96.8 84.347H66.892l1.63-2.578zm-3.667 5.8h29.273l-2.138 2.579H63.225l1.63-2.578zm-5.319 8.416l1.652-2.614h28.13l-2.167 2.614H59.536zm31.08 35.149a8.262 8.262 0 00-4.101-1.093c-2.903 0-5.594 1.546-7.097 3.966a6.401 6.401 0 00-2.97.123c-1.59-1.806-3.914-2.911-6.39-2.911a8.45 8.45 0 00-2.65.426V99.207h17.07c-.584.707-.727 1.565-.384 2.296.344.732 1.097 1.169 2.016 1.169h4.505v28.462zm-18.807 9.892h-6.868a5.285 5.285 0 01-.166-1.301 5.289 5.289 0 015.282-5.283 5.3 5.3 0 013.545 1.378 6.399 6.399 0 00-1.793 5.206zm18.806 5.741H61.507v-2.519h29.108v2.519zm.001-5.741H75.074a3.15 3.15 0 01-.084-.717 3.2 3.2 0 013.195-3.198c.476 0 .935.104 1.364.306a1.61 1.61 0 002.193-.876 5.148 5.148 0 014.774-3.277c1.655 0 3.158.812 4.1 2.072v5.69zm-2.15-41.577L110 73.474l21.535 25.975h-2.842L111.24 78.4a1.613 1.613 0 00-2.48 0L91.307 99.45h-2.842zm28.357 47.318h-13.646v-25.008h13.646v25.008zm35.769 0h-23.207v-19.458a1.612 1.612 0 00-3.223 0v19.458h-6.116v-25.546a2.689 2.689 0 00-2.686-2.685h-14.72a2.689 2.689 0 00-2.686 2.685v25.546h-6.116v-45.321L110 81.952l16.162 19.494v27.403a1.611 1.611 0 003.223 0v-26.177h4.505c.918 0 1.671-.437 2.015-1.169.345-.731.2-1.589-.384-2.296h15.443a1.611 1.611 0 000-3.222h-18.115l-2.168-2.614h28.13l1.653 2.614h-10.933a1.612 1.612 0 000 3.222h3.061v47.56z" fill="#000"/></svg>