<svg width="60" height="60" fill="none" xmlns="http://www.w3.org/2000/svg"><path d="M3.75 57.188h52.5c.517 0 .938-.42.938-.938V30a.938.938 0 00-.938-.938H30.937V3.75A.938.938 0 0030 2.812H3.75a.938.938 0 00-.938.938v52.5c0 .517.42.938.938.938zm25.313-16.923a10.322 10.322 0 01-9.328-9.328h9.328v9.328zm0 1.887v2.819a15.021 15.021 0 01-14.034-14.033h2.82a12.207 12.207 0 0011.213 11.214zm1.875-11.215h9.327a10.322 10.322 0 01-9.328 9.328v-9.328zm-11.203-1.875a10.322 10.322 0 019.328-9.327v9.328h-9.328zm9.328-11.214a12.207 12.207 0 00-11.215 11.215H15.03a15.021 15.021 0 0114.034-14.034v2.82zm-15.89 13.09c.485 8.566 7.323 15.405 15.89 15.89v8.484H17.764A14.062 14.062 0 004.687 42.236V30.938h8.486zm-8.486 16.93a8.45 8.45 0 017.445 7.444H4.688v-7.444zm9.333 7.444a10.33 10.33 0 00-9.332-9.332v-1.882a12.207 12.207 0 0111.214 11.215H14.02zm30.078 0a12.207 12.207 0 0111.215-11.214v1.882a10.33 10.33 0 00-9.333 9.333h-1.882zm3.77 0a8.45 8.45 0 017.444-7.444v7.444h-7.444zm7.444-13.077a14.062 14.062 0 00-13.077 13.078H30.938v-8.486c8.566-.484 15.405-7.323 15.89-15.89h8.484v11.298zM44.971 30.938A15.021 15.021 0 0130.938 44.97v-2.82a12.207 12.207 0 0011.214-11.214h2.819zM29.063 13.172c-8.567.485-15.405 7.323-15.89 15.89H4.687V17.764A14.062 14.062 0 0017.765 4.687h11.297v8.486zM15.902 4.687A12.207 12.207 0 014.688 15.902V14.02a10.33 10.33 0 009.332-9.332h1.882zm-3.77 0a8.45 8.45 0 01-7.444 7.445V4.688h7.444z" fill="#EAA53C"/><path d="M33.375 18.221l.85 1.7c.102.204.214.404.333.6l-1.702 5.448a.937.937 0 001.175 1.176l5.352-1.673 3.187 1.912a5.202 5.202 0 002.674.741h3.022a5.201 5.201 0 004.83-7.131l-.524-1.306c1.014-2.57.946-5.44-.187-7.96l5.452-5.454a.938.938 0 000-1.326l-2.8-2.798a.938.938 0 00-1.325 0l-5.179 5.178A10.196 10.196 0 0044.8 5.891l-.767-.128a10.18 10.18 0 00-1.671-.138h-1.24a8.708 8.708 0 00-7.747 12.596zm4.554-2.204a4.852 4.852 0 015.094-3.366 4.79 4.79 0 012.198.802L43.4 15.275l1.325 1.325 1.822-1.821c.445.655.72 1.41.802 2.198a4.85 4.85 0 01-3.366 5.093l-8.805 2.751 2.751-8.804zM50.827 19l-.136.34a.951.951 0 000 .696l.662 1.654a3.323 3.323 0 01-3.087 4.56h-3.022a3.331 3.331 0 01-1.711-.469l-1.755-1.052 2.764-.865a6.73 6.73 0 004.677-7.073 6.655 6.655 0 00-1.328-3.353l.863-.862.73.729a.938.938 0 001.325 0l.132-.131A8.343 8.343 0 0150.827 19zm3.548-14.862l1.473 1.473-5.706 5.706-1.473-1.473 5.706-5.706zM35.906 9.951A6.776 6.776 0 0141.123 7.5h1.239a8.4 8.4 0 011.362.113l.768.128a8.34 8.34 0 012.685.943l-.496.497a.938.938 0 000 1.326l.743.743-.862.863a6.676 6.676 0 00-10.421 3.345l-.789 2.524-.3-.6a6.884 6.884 0 01-.595-1.751 6.769 6.769 0 011.45-5.685v.005z" fill="#EAA53C"/></svg>