<svg width="90" height="90" fill="none" xmlns="http://www.w3.org/2000/svg"><g clip-path="url(#clip0_24_158)"><path d="M6.329 0a1.421 1.421 0 00-1.354 1.024C4.328 3.336 2.788 5.046.945 5.696c-1.26.438-1.26 2.222 0 2.66 1.842.652 3.38 2.367 4.024 4.68.189.676.774 1.018 1.349 1.027v.002l.01-.002.012.002v-.002c.574-.011 1.16-.35 1.348-1.028.644-2.312 2.182-4.027 4.024-4.68 1.26-.437 1.26-2.221 0-2.659-1.842-.65-3.383-2.36-4.03-4.672A1.42 1.42 0 006.33 0zM83.67.003a1.421 1.421 0 00-1.354 1.024c-.646 2.311-2.187 4.021-4.03 4.672-1.26.438-1.26 2.222 0 2.659 1.842.653 3.38 2.368 4.024 4.68.19.677.774 1.019 1.349 1.027v.003c.004 0 .007-.003.011-.003.004 0 .008.003.011.003v-.003c.575-.01 1.16-.35 1.349-1.027.644-2.312 2.182-4.027 4.023-4.68 1.261-.438 1.261-2.222 0-2.659-1.843-.65-3.383-2.36-4.029-4.672A1.42 1.42 0 0083.671.003zM6.329 4.787a9.548 9.548 0 002.043 2.239C7.3 7.905 6.756 8.63 6.33 9.278c-.428-.648-.97-1.373-2.044-2.252A9.548 9.548 0 006.33 4.787zM85.714 7.03c-1.073.879-1.615 1.604-2.043 2.252-.428-.648-.97-1.373-2.044-2.253a9.548 9.548 0 002.044-2.238 9.55 9.55 0 002.043 2.239zM39.375 85.787A4.209 4.209 0 0043.591 90h2.818c2.351 0 4.216-1.9 4.216-4.213l.001-1.412a4.21 4.21 0 004.218-4.213V78.75c1.875 0 1.875-2.813 0-2.813v-2.812c1.626 0 1.837-2.11.642-2.672.068-.65.319-1.334.714-2.069 3.967 2.366 7.65 4.034 10.753 4.746 2.413.554 4.462.56 6.136-.175 1.793-.789 2.794-2.309 3.12-4.162.614-3.493-1.05-8.635-4.705-14.894-.935-1.656-3.412-.212-2.43 1.417 3.502 6 4.802 10.483 4.36 12.991-.17.971-.627 1.706-1.477 2.08-.85.373-2.304.478-4.367.005-2.752-.632-6.1-2.134-9.783-4.312.972-1.225 2.112-2.537 3.345-4.046 3.082-3.772 6.342-8.594 6.342-15.787 0-2.556-.406-5-1.137-7.287 3.286-4.133 6.016-8.124 8.072-11.777 3.304-5.87 4.986-11.032 4.073-14.557-.486-1.877-1.735-3.266-3.634-3.854-.885-.273-1.846-.368-2.88-.318-1.035.048-2.143.248-3.321.563-4.715 1.26-10.688 4.505-17.471 9.542-1.507 1.115.168 3.376 1.675 2.26 6.608-4.906 12.419-7.996 16.523-9.094 2.053-.548 3.65-.572 4.64-.266.988.306 1.494.924 1.746 1.865.623 2.323-.572 6.738-3.804 12.48-1.754 3.117-4.07 6.55-6.828 10.127-3.501-7.138-10.712-12.02-20.145-12.022-9.436.002-16.645 4.885-20.146 12.025-2.76-3.58-5.079-7.014-6.834-10.132-3.231-5.743-4.426-10.158-3.803-12.48.252-.941.757-1.56 1.746-1.866.989-.305 2.587-.282 4.64.267 4.104 1.097 9.914 4.187 16.522 9.094 1.507 1.115 3.183-1.145 1.676-2.261-6.784-5.037-12.756-8.281-17.471-9.542-1.179-.315-2.286-.513-3.32-.563-1.035-.048-1.996.043-2.882.319-1.899.587-3.147 1.976-3.633 3.853-.913 3.526.769 8.686 4.073 14.557 2.057 3.655 4.789 7.648 8.077 11.783a23.878 23.878 0 00-1.137 7.284c0 7.193 3.26 12.015 6.342 15.787 1.233 1.509 2.374 2.82 3.345 4.043-3.684 2.18-7.035 3.683-9.788 4.315-2.063.473-3.517.368-4.367-.005-.85-.374-1.307-1.109-1.478-2.08-.44-2.508.858-6.992 4.361-12.991.981-1.63-1.495-3.073-2.43-1.417-3.655 6.259-5.319 11.4-4.705 14.894.326 1.853 1.326 3.373 3.12 4.161 1.673.736 3.723.73 6.136.176 3.105-.712 6.79-2.38 10.76-4.748.404.736.644 1.418.712 2.068-1.201.557-.992 2.675.637 2.675v2.813c-1.875 0-1.875 2.812 0 2.812v1.412a4.21 4.21 0 004.218 4.213l.001 1.412zM45 15.47c-.703 0-1.406.47-1.406 1.407v2.812c0 1.876 2.812 1.876 2.812 0v-2.812c0-.938-.703-1.406-1.406-1.406zM23.124 26.52l1.988 1.991c1.326 1.326 3.315-.665 1.989-1.991l-1.989-1.989c-.331-.331-.705-.457-1.057-.436-1.057.062-1.926 1.43-.931 2.425zm41.763-1.988l-1.99 1.988c-1.327 1.326.662 3.317 1.988 1.991l1.99-1.99c.996-.995.124-2.364-.933-2.426-.352-.021-.723.105-1.055.437zm-1.705 13.875a132.297 132.297 0 01-5.46 6.29A140.24 140.24 0 0144.994 56.82a140.906 140.906 0 01-12.716-12.126 132.31 132.31 0 01-5.455-6.281c2.822-6.91 9.422-11.688 18.18-11.69 8.755.002 15.356 4.777 18.179 11.684zM7.015 29.534a1.409 1.409 0 00-1.351 1.027c-.749 2.645-2.553 4.625-4.732 5.386-1.241.446-1.241 2.202 0 2.648 2.18.758 3.992 2.745 4.743 5.389.395 1.347 2.305 1.347 2.7 0 .749-2.645 2.552-4.628 4.732-5.39 1.26-.437 1.26-2.22 0-2.658-2.18-.758-3.981-2.73-4.732-5.375a1.405 1.405 0 00-1.36-1.027zm75.942 0a1.409 1.409 0 00-1.351 1.027c-.75 2.645-2.553 4.625-4.733 5.386-1.24.446-1.24 2.202 0 2.648 2.18.758 3.992 2.745 4.743 5.389.396 1.347 2.305 1.347 2.7 0 .75-2.645 2.553-4.628 4.733-5.39 1.26-.437 1.26-2.22 0-2.658-2.18-.758-3.982-2.73-4.733-5.375a1.405 1.405 0 00-1.36-1.027zM45 29.537c-3.455 0-6.83 1.052-9.663 3.03-1.592 1.069.066 3.442 1.618 2.315A14.048 14.048 0 0145 32.349c1.914.04 1.914-2.851 0-2.812zM7.015 34.368c.864 1.333 1.448 1.936 2.65 2.898-1.033.839-1.792 1.536-2.639 2.9-.926-1.508-1.942-2.353-2.661-2.898.981-.743 1.913-1.64 2.65-2.9zm75.942 0c.863 1.333 1.447 1.936 2.65 2.898-1.034.839-1.793 1.536-2.64 2.9-.925-1.508-1.942-2.353-2.66-2.898.98-.743 1.912-1.64 2.65-2.9zm-50.613 2.197a1.406 1.406 0 100 2.813 1.406 1.406 0 000-2.813zm32.348 9.682c0 6.152-2.776 10.41-5.72 14.013-1.241 1.518-2.5 2.913-3.59 4.312-2.624-1.695-5.379-3.694-8.185-5.94a143.879 143.879 0 0012.587-12.036 139.405 139.405 0 004.39-4.969c.328 1.482.518 3.021.518 4.62zm-38.86-4.617a139.237 139.237 0 004.383 4.966 144.297 144.297 0 0012.58 12.035c-2.802 2.24-5.555 4.246-8.174 5.938-1.09-1.398-2.348-2.792-3.587-4.309-2.945-3.604-5.721-7.86-5.721-14.013 0-1.597.19-3.136.519-4.617zm-10.363 3.373c-1.875 0-1.875 2.81 0 2.81h2.813c1.875 0 1.875-2.81 0-2.81h-2.813zm56.246 0c-1.875 0-1.875 2.81 0 2.81h2.816c1.875 0 1.875-2.81 0-2.81h-2.816zM45 60.46c2.989 2.416 5.952 4.584 8.805 6.432-.605 1.073-1.048 2.197-1.145 3.42H37.345c-.097-1.224-.534-2.353-1.142-3.425 2.849-1.847 5.813-4.016 8.797-6.428zm22.343 5.306c1.474 1.16 3.212-1.052 1.738-2.211l-2.21-1.739c-.37-.29-.755-.37-1.102-.307-1.042.187-1.743 1.649-.637 2.518l2.21 1.739zm-44.206-3.939l-2.21 1.741c-1.474 1.16.265 3.371 1.738 2.211l2.211-1.741c1.105-.87.405-2.332-.637-2.519-.348-.062-.733.016-1.102.308zM9.847 67.51a1.405 1.405 0 00-1.36 1.027c-1.185 4.344-4.056 7.629-7.555 8.896-1.241.446-1.241 2.204 0 2.65 3.5 1.263 6.377 4.543 7.566 8.886.383 1.371 2.329 1.371 2.711 0 1.186-4.344 4.057-7.63 7.556-8.897 1.241-.445 1.241-2.204 0-2.65-3.5-1.263-6.377-4.542-7.567-8.885a1.408 1.408 0 00-1.351-1.027zm70.303 0a1.405 1.405 0 00-1.36 1.027c-1.185 4.344-4.056 7.629-7.555 8.896-1.241.446-1.241 2.204 0 2.65 3.5 1.263 6.377 4.543 7.566 8.886.383 1.371 2.329 1.371 2.711 0 1.186-4.344 4.057-7.63 7.556-8.897 1.241-.445 1.241-2.204 0-2.65-3.5-1.263-6.377-4.542-7.567-8.885a1.408 1.408 0 00-1.351-1.027zM9.847 72.677c1.386 2.82 2.993 4.615 5.348 6.075-2.432 1.556-3.965 3.396-5.348 6.048-1.248-2.546-3.169-4.827-5.336-6.037 2.439-1.605 3.971-3.37 5.336-6.086zm70.303 0c1.386 2.82 2.993 4.615 5.347 6.075-2.431 1.556-3.965 3.396-5.347 6.048-1.248-2.546-3.17-4.827-5.337-6.037 2.44-1.605 3.972-3.37 5.337-6.086zm-42.181.447H52.03v2.813H37.969v-2.813zm0 5.625H52.03v1.412c0 .803-.644 1.4-1.404 1.4H39.372c-.76 0-1.403-.597-1.403-1.4v-1.412zm4.218 5.625h5.625v1.412c0 .803-.644 1.4-1.403 1.4H43.59c-.76 0-1.404-.597-1.404-1.4v-1.412z" fill="#EAA53C"/></g><defs><clipPath id="clip0_24_158"><path fill="#fff" d="M0 0h90v90H0z"/></clipPath></defs></svg>