<svg width="60" height="60" fill="none" xmlns="http://www.w3.org/2000/svg"><path d="M28.12 41.256l6.394-9.945-.651-1.191h-3.195l1.682-3.436-.7-1.113-4.977.03-.736.552-2.137 7.143.74.995h2.93l-.77 6.455 1.42.51zm-2.54-8.512l1.675-5.6 3.157-.02-1.678 3.429.695 1.113h3.018l-3.813 5.928.476-3.985-.768-.865h-2.763zm-.705 14.662a1.704 1.704 0 00-1.516.94H11.77V36.218h1.934v-1.547H8.692v1.547h1.531v12.9l.773.773h12.348a1.71 1.71 0 101.531-2.486zm.112 1.859v-.258a.201.201 0 010 .258z" fill="#EAA53C"/><path d="M19.147 46.524a4.147 4.147 0 10-.001-8.293 4.147 4.147 0 00.001 8.293zm0-6.746a2.599 2.599 0 110 5.197 2.599 2.599 0 010-5.197z" fill="#EAA53C"/><path d="M18.374 44.421h1.547v-1.27h1.27v-1.548h-1.27v-1.27h-1.547v1.27h-1.271v1.547h1.27v1.271zm20.883 2.103a4.147 4.147 0 10-.002-8.294 4.147 4.147 0 00.002 8.294zm0-6.746a2.599 2.599 0 11-.001 5.198 2.599 2.599 0 010-5.198z" fill="#EAA53C"/><path d="M37.212 41.603h4.089v1.547h-4.089v-1.547z" fill="#EAA53C"/><path d="M56.127 48.14V10.6a6.768 6.768 0 00-6.757-6.76l-4.323-.029-.779.773v7.112H4.837l-.774.774v42.67l.774.774h44.478v-.002c3.734-.026 6.814-3.025 6.875-6.708a6.926 6.926 0 00-.063-1.065zM45.814 5.362l3.55.023A5.221 5.221 0 0154.58 10.6v34.082a6.774 6.774 0 00-5.208-2.42l-3.557-.032V5.362zm8.8 44.267a5.369 5.369 0 01-5.348 4.739H5.61V13.242h38.658v4.82H33.702a4.586 4.586 0 00-9 0H10.996l-.773.774v12.9H7.27v1.546h7.856v-1.547H11.77V19.61h12.894a4.586 4.586 0 009.075 0h10.529v23.386l.766.774 1.6.014v4.562h-11.59a1.703 1.703 0 00-1.515-.94 1.696 1.696 0 00-.543.092l-4.786-4.68-1.082 1.106 4.788 4.682c-.055.171-.083.35-.083.53a1.7 1.7 0 003.238.757h12.347l.773-.773V43.8l1.134.01h.05a5.283 5.283 0 015.215 4.448v1.184h.053a5.972 5.972 0 01-.018.188zM28.108 18.946l-1.53 1.53a3.029 3.029 0 010-3.06l1.53 1.53zm-.436-2.625a3.029 3.029 0 013.06 0l-1.53 1.53-1.53-1.53zm1.53 3.718l1.53 1.53a3.029 3.029 0 01-3.06 0l1.53-1.53zm1.094-1.094l1.53-1.53a3.028 3.028 0 010 3.06l-1.53-1.53z" fill="#EAA53C"/></svg>